<?xml version="1.0" encoding="UTF-8"?>
<svg id="Layer_1" data-name="Layer 1" xmlns="http://www.w3.org/2000/svg" viewBox="0 0 2573 417">
  <defs>
    <style>
      .cls-1 {
        fill: #024481;
      }

      .cls-2 {
        fill: #014583;
      }

      .cls-3 {
        fill: #014481;
      }

      .cls-4 {
        fill: #024583;
      }

      .cls-5 {
        fill: #3d79aa;
      }

      .cls-6 {
        fill: #004481;
      }

      .cls-7 {
        fill: #87a9c4;
      }

      .cls-8 {
        fill: #024484;
      }

      .cls-9 {
        fill: #014584;
      }

      .cls-10 {
        fill: #014482;
      }

      .cls-11 {
        fill: #024482;
      }

      .cls-12 {
        fill: #024581;
      }

      .cls-13 {
        fill: #074183;
      }

      .cls-14 {
        fill: #014581;
      }

      .cls-15 {
        fill: #024582;
      }

      .cls-16 {
        fill: #fdfffd;
      }

      .cls-17 {
        fill: #004583;
      }

      .cls-18 {
        fill: #014483;
      }

      .cls-19 {
        fill: #014484;
      }

      .cls-20 {
        fill: #084183;
      }

      .cls-21 {
        fill: #fefffe;
      }

      .cls-22 {
        fill: #074083;
      }

      .cls-23 {
        fill: #014480;
      }

      .cls-24 {
        fill: #014582;
      }

      .cls-25 {
        fill: #024483;
      }
    </style>
  </defs>
  <g>
    <path class="cls-13" d="M197.81,.5h23.34c31.24,1.85,62.11,10.59,89.45,25.87,32.13,17.79,59.41,44.21,78.17,75.79,16.38,27.35,26.27,58.54,28.7,90.32,2.47,31.53-2.29,63.62-13.98,93.01-17.85,45.33-52.2,83.86-95.13,106.88-50.8,27.68-113.28,32.51-167.8,13.27-35.58-12.36-67.54-34.68-91.62-63.62-21.91-26.24-37.22-57.96-44-91.47C-1.73,217.86-.45,183.57,8.72,151.49c12.23-43.17,38.96-82.03,74.78-109.02C116.3,17.5,156.66,2.78,197.81,.5Zm-13.88,7.65c-44.31,5.43-86.42,26.27-117.88,57.9C32.54,99.58,11.21,145.16,7.78,192.5c-5,56.33,15.46,114.31,54.63,155.1,23.27,24.76,52.92,43.45,85.3,53.75,45.5,14.67,96.17,12.44,140.2-6.19,46.14-19.29,84.5-56.36,105.34-101.82,20.61-44.33,24.17-96.2,9.94-142.94-10.83-36.18-32.17-69.11-60.65-93.88-23.73-20.81-52.42-35.93-83.01-43.69-24.61-6.35-50.4-7.64-75.6-4.68Z"/>
    <path class="cls-13" d="M282.01,212.74c3.21,4.02,5.39,8.72,7.96,13.14,5.49,10.22,10.73,20.93,12.04,32.6,1.44,9.4,1.42,19.45-2.55,28.26-4.67,9.59-15.79,14.12-25.97,14.34-17.63,.63-34.33-6.57-49.39-15.07-4.53-2.58-9.16-5.02-13.41-8.05,1.24-2.62,4.48-3.74,6.8-5.3,12.5,8.7,25.44,17.31,40.11,21.89,8.08,2.32,16.67,3.44,25.02,2.11,6.47-1.16,12.17-5.85,14.05-12.22,2.78-8.28,1.54-17.39-1.23-25.51-4.53-13.4-12.27-25.36-19.52-37.4,2.11-2.88,4.1-5.83,6.09-8.79Z"/>
  </g>
  <g>
    <path class="cls-3" d="M178.61,25.27c4.18-1.56,8.71-1.23,13.03-2.13,1.58,.79,3.7,2.29,3.22,4.33-1.94,2.47-4.16,4.73-6.12,7.19,.82,.8,1.64,1.59,2.47,2.39,2.88-.04,6.23-1.93,8.79,.04,1.64,.88,1.53,2.97,2.05,4.52-.59,.23-1.76,.7-2.35,.94-2.16-.19-4.3,.1-6.44,.35,.03,6.08-.89,12.11-1.41,18.15-6.6,1.36-12.15-6.39-10.8-12.5-.53-.5-1.07-1-1.61-1.49-1.59,.79-3.44,1.88-5.2,.87-1.44-1.95-2.65-4.32-2.15-6.82,4.36,1.29,8.4-.55,12.17-2.59-.3-1.36-.83-2.65-1.15-4,.46-2.25,2.48-3.77,3.59-5.69-5.72,.33-10.9,3.06-15.47,6.33-1.81,1.57-4.05-.09-5.95-.47-.34-1.53-1.77-3.2-.5-4.66,5.09,.02,9.03-3.63,13.83-4.76Zm2.19,21.22c.18,3.03,2.11,7.24,5.75,6.14,1.95-2.67,1.48-6.14,1.72-9.24-2.58,.82-5.08,1.83-7.47,3.1Z"/>
    <path class="cls-3" d="M347.27,97.95c.3-.03,.91-.09,1.21-.12,.79,3.6,4.15,5.55,7.04,7.35,3.08,.04,6.18-.66,9.05-1.77,.27-.65,.8-1.93,1.07-2.57h1.33c.41,1.88,.8,3.77,1.1,5.67-.37,.56-1.13,1.67-1.5,2.22-2.03,.8-4.06,1.61-6.06,2.45,.93,1.94,2.43,3.85,2.19,6.12-.43,1.95-1.39,3.72-2.21,5.51-3.22-1.12-4.76-4.41-6.85-6.83-.6-.21-1.79-.63-2.38-.84-1.26,3.61-2.28,7.37-2.07,11.23,1.22,3.72,1.79,7.64,1.78,11.56-1.19,.36-2.39,.69-3.59,.99-1.72-1.69-2.43-4.11-2.59-6.46-.35-5.63,.14-11.27,.45-16.9-4.84,1.05-9.64,3.25-14.69,2.33-1.28-3.04-4.7-5.73-3.63-9.32,1.43-3.73,5.78-4.39,9.02-5.84,.69,2.18,1.43,4.34,2.38,6.42,2.21-.1,4.43-.28,6.65-.48-.68-3.81,.05-7.56,2.3-10.72Z"/>
    <path class="cls-3" d="M39.3,134.54c4.61,.52,2.29,6.13,2.5,9.2,1.61,.71,3.23,1.4,4.86,2.07,.18-1.18,.36-2.36,.52-3.54,1.5-1.28,3.06-4.75,5.07-2.15-.3,1.33-.96,2.54-1.55,3.75,.45,1.31,.92,2.61,1.4,3.92,.88,.04,2.64,.13,3.51,.17,1.12-1.4,2.14-2.97,3.72-3.91,2.94-.61,4.59,2.25,5.85,4.37,2.51-.87,5.08-1.62,7.78-1.56,1.44,3.88-2.51,6.02-4.42,8.75-1.39,2.16-4.3,1.7-6.41,1.12-1.77-.85-1.73-3.2-2.52-4.77-.26,.12-.77,.37-1.02,.49-.55,2.23-1.2,4.42-1.91,6.6-1.74-.3-3.45-.75-5.16-1.15,.59-.56,1.77-1.67,2.36-2.22,.42-1.22,.85-2.44,1.28-3.66-1.76-.82-3.91-3.46-5.8-1.65-.95,2.54,1.79,5.7-.59,7.64-1.23-.29-2.45-.62-3.67-.98,.94-2.17,1.07-4.54,1.12-6.88-1.22-.63-2.44-1.25-3.67-1.88-.63,.95-1.27,1.89-1.91,2.84-.45,0-1.35-.04-1.8-.05-.02-1.6-.03-3.19-.03-4.79-3.18-2.23-7.97-3.11-9.38-7.14,3.11-.68,6.18-.09,8.05,2.67,.41,.1,1.22,.29,1.63,.39,.08-2.55,.13-5.11,.19-7.65Z"/>
    <path class="cls-3" d="M35.17,157.23c1.78-1.22,3.08-3.48,5.52-3.34,1.88,2.55,.73,5.95,1.85,8.77,.69,2.01,2.62,3.16,4.16,4.48-.37-2.65-.75-5.29-1.04-7.94,4.74,1.52,5.59,6.57,7.67,10.39,3.72,1.38,7.45,2.76,11.28,3.8-.23,4.78-5.92,3.8-9.04,2.62,.29,2,.69,4,1.34,5.93-.95,.83-1.9,1.65-2.86,2.48-4.77-.82-5.18-6.71-7.97-9.86,.04-1.25,.07-2.5,.11-3.75-1.27-.46-2.54-.9-3.81-1.32-.46,3.16,.14,7-2.42,9.41-1.26,1.71-3.58,1.28-5.41,1.68,2.66-5,.81-10.72-.37-15.87-1.97-2.88-5.89-4.11-7.23-7.61,2.74-.19,5.48,.27,8.22,.13Z"/>
    <path class="cls-3" d="M258.62,364.64c3.59-.45,7.72-3.97,11.04-1.36,1.91,1.7,.65,4.04,.36,6.12,1.46,1.54,3.36,2.73,4.4,4.62-1.26,.55-2.55,1-3.84,1.46-1.7-1.71-3.45-3.45-5.75-4.34,.51,1.86,1.08,3.7,1.63,5.56-.86,.36-2.6,1.08-3.46,1.45-1.76-4.4-3.41-8.87-4.38-13.51Zm5.08,1.19c0,.67-.02,1.99-.03,2.66,1.06-.19,2.13-.38,3.2-.56,.01-.52,.02-1.56,.03-2.08-1.07-.01-2.14-.02-3.2-.02Z"/>
    <path class="cls-3" d="M245.77,368.15c3.7-1.18,7.51-2.02,11.35-2.64,.22,.81,.66,2.42,.88,3.22-1.34,.23-2.67,.45-3.99,.68,.85,3.48,1.75,6.95,2.39,10.47-1.32,.16-2.63,.32-3.95,.47-.7-3.19-1.49-6.37-2.06-9.59-2.32,.09-4.48,.78-6.42,2.03-1.67,1.24-3.41-.55-5.03-.92-2.21,2.76-1.82,8.23,2.55,8.38,.58-1.21,1.15-2.42,1.74-3.63,.76,.29,2.29,.87,3.06,1.16,.14,4.81-6.08,6.83-9.67,4.62-3.21-2.31-3.5-6.91-2.44-10.4,1.61-2.88,5.14-3.3,8.11-2.98,1.22,.81,2.49,1.57,3.75,2.34-.06-.8-.2-2.41-.27-3.21Z"/>
    <path class="cls-3" d="M195.88,384.76c.11-4.66,.23-9.32,.92-13.93,3.34,.19,6.69,.19,10.02,.57,.14,.71,.42,2.12,.56,2.83-2.24-.02-4.47-.09-6.71-.18-.02,.52-.06,1.55-.08,2.07,1.87,.09,3.74,.19,5.61,.29,.02,.72,.05,2.15,.06,2.87-2.06-.08-4.12-.15-6.18-.22,0,.68-.02,2.05-.03,2.73,2.34,.1,4.68,.22,7.02,.36-.14,.73-.42,2.18-.57,2.9-3.54,.2-7.08-.18-10.62-.29Z"/>
  </g>
  <g>
    <path class="cls-24" d="M247.71,25.84c.54-.58,1.62-1.74,2.15-2.32,.88,1.73,1.82,4.02,.51,5.79-1.17,2.1-3.81,1.5-5.79,1.58-3.96,.06-7.87-.64-11.53-2.13-.14-.5-.41-1.49-.54-1.99,5.09,.48,10.21,.23,15.2-.93Z"/>
    <path class="cls-24" d="M120.78,41.75c1.78-1.39,3.85-.11,5.72,.34-1.65,1.88-2.28,6.55-5.65,5.61-2.3,.15-4.65,.69-6.92,.14-1.62-.55-2.43-2.22-3.5-3.41,3.68,.17,7.22-.75,10.35-2.68Z"/>
    <path class="cls-24" d="M375.23,215.57c2.56,1.74,4.89,3.83,7.61,5.33,2.02,.58,4.12,.8,6.19,1.14-.33,1.26-.67,2.53-1,3.81-5.18-2.02-9.56,1.76-14.1,3.6,.15-1.54,.48-3.03,1-4.46,1.32-.78,2.74-1.36,4.13-2-1.34-.97-2.66-1.96-3.97-2.94,.04-1.5,.08-2.99,.14-4.48Z"/>
    <path class="cls-24" d="M326.9,324.38c2.49-2.7,5.01-5.36,7.66-7.9,.39,.56,1.16,1.67,1.55,2.23-1.43,1.91-3.09,3.63-4.54,5.52,2.27,.43,3.72-1.22,5.18-2.64,.99-1.69,2.18,.31,2.82,1.11-1.29,1.33-2.62,2.62-3.76,4.08,.21,.93,1.18,1.26,1.84,1.83,1.53-1.65,3.09-3.26,4.68-4.84,.49,.65,1.49,1.94,1.99,2.59-2.44,2.47-4.82,4.98-7.18,7.51-3.53-3.04-6.76-6.4-10.24-9.49Z"/>
    <path class="cls-24" d="M303.91,345.45c1.27-3.67,5.18-7.84,9.34-5.59,2.02,.26-.34,2.27-.4,3.31-1.22-.12-2.43-.22-3.64-.33-.33,.7-.99,2.09-1.32,2.78,1.51,2.13,2.98,5.01,6.11,4.5,.13-1.37,.25-2.74,.36-4.11,1.21-.42,2.44-.83,3.66-1.22-.04,1.74,.37,3.58-.24,5.26-1.35,2.25-4.02,3.04-6.29,4.03-3.92-1.37-6.48-4.72-7.58-8.63Z"/>
    <path class="cls-24" d="M296.93,347.45c1.13-.56,2.24-1.17,3.42-1.62,2.74,3.68,5,7.69,7.33,11.65-1.16,.61-2.3,1.24-3.44,1.86-2.46-3.95-4.99-7.86-7.31-11.89Z"/>
    <path class="cls-24" d="M275.9,358.26c4.62-3.27,10.19,1.34,10.31,6.3,1.11,5.22-6.06,9.24-10.15,6.23-3.91-2.78-5.13-10.16-.16-12.53Zm.96,2.6c-.09,2.11-.54,4.55,1.02,6.27,.85,1.5,2.86,.76,4.25,1,.8-3.54-.83-8.33-5.27-7.27Z"/>
  </g>
  <g>
    <path class="cls-10" d="M261.06,25.14c1.71,2.02,3.92,4.49,2.78,7.36-1.76,4.71-3.83,9.32-5.28,14.14,2.91,.6,6.76-.67,8.88,2,.8,.95,.49,2.35,.77,3.49-3.34-.3-6.67-.82-10.02-1.03-3.58,6.57-2.75,14.59-6.6,21-.63-1.82-2.18-3.63-1.55-5.65,1.34-4.78,2.82-9.53,3.93-14.37-2.12,.29-4.3,1.19-6.43,.64-1.73-1.42-2.15-3.75-2.98-5.71,2.91,1.32,5.94,.79,8.86-.12-2.43-1.95-4.49-4.32-6-7.04-.72,.05-1.44,.12-2.15,.19-.2,.58-.59,1.74-.78,2.32,.97-.2,2.9-.59,3.87-.78-.72,3.33-3.87,4.49-6.28,6.31-2.4,3.34-1.84,8.49-5.77,10.72-.92-2.96-.45-6.02,.18-8.98-3.02,.49-5.94,1.48-8.99,1.76-.8-.9-2.46-2.72-.84-3.69,2.69-2.29,5.57-4.52,8.89-5.81,1.97-.93,2.71,1.09,2.58,2.68-1.64,.5-3.27,1.01-4.87,1.64,4.1,.46,6.61-2.74,7.98-6.15-5.3-.59-10.62-.18-15.8,.74-.18-.97-.55-2.91-.73-3.87,5.53,1.05,11.25,1.07,16.83,.62,1.41-1.34,2.29-3.1,3.39-4.69,2.96,4.89,6.64,9.27,11.26,12.68,.65-1.54,1.19-3.18,1.11-4.88-2.15-2.4-4.44-4.88-4.57-8.34,2.23,1.4,4.13,3.22,5.97,5.08,1.95-3.81,2.36-8.05,2.36-12.26Z"/>
    <path class="cls-10" d="M318.52,66.02c2.8-1.01,4.6-3.5,6.41-5.71,1.78,2.51,.35,5.02-1.31,7.1,1.16,1.79,2.07,3.74,2.67,5.79-3.65,.5-7.13-2.53-10.66-.68-.02,2.48,1.98,5.16,.46,7.45-1.01,1.74-2.77,2.84-4.2,4.2,2.11,4.61,6.78,10.5,2.6,15.31-3.1-3.96-5.09-8.6-6.71-13.32-2.09-.18-4.2-.27-6.26-.64-1.76-1.18-3.14-2.87-4.29-4.62-1.08-1.99,.06-4.18,.61-6.14,1.62,3.41,4.62,6.24,8.54,6.48-.22-3.05-.76-6.07-1.97-8.89l-.6-2.84c1.03-1.02,2.06-2.04,3.1-3.06,.59,2.05,1.07,4.13,1.45,6.23,1.44-1.03,2.9-2.06,4.37-3.05-.62-.24-1.88-.73-2.51-.97-.52-1.67-1.04-3.35-1.49-5.03,3.24,.85,6.39,2.28,9.79,2.39Zm-8.87,10.58c.13,.62,.37,1.85,.5,2.46,.5,0,1.5,.02,2.01,.03,.04-.54,.13-1.62,.18-2.16-.67-.09-2.02-.25-2.69-.33Z"/>
    <path class="cls-10" d="M76.49,84.31c1.86-1.55,3.08-4.54,5.84-4.48,1.4-.11,1.94,1.36,2.75,2.2-2.87,3.73-.45,8.35,3.32,10.19,4.35-3.36,6.54-8.77,11.34-11.66,.77,.86,1.54,1.72,2.3,2.6-1.52,5.08-5.68,8.3-9.87,11.15,4.4,2.5,9.24,4.58,12.69,8.39-1.79,.52-3.82,1.84-5.63,.62-3.61-2.14-6.81-4.99-10.76-6.56-.76,.86-1.52,1.72-2.28,2.59,.7,2.55,1.3,5.14,1.84,7.73-1.61-.02-3.21-.06-4.82-.13-1.13-4.56-1.07-9.36-2.81-13.78-.75,2.1-1.21,4.29-1.95,6.39-2.05,1.2-4.54,1.23-6.83,1.62,1.39-4.17,3.58-8.24,3.5-12.75-1.87-2.87-5.36-3.95-8.2-5.6,.13-.43,.41-1.3,.55-1.73,3.28,.18,6.21,1.61,9.02,3.21Z"/>
    <path class="cls-10" d="M60.72,95.9c1.11-.46,2.75-2.01,3.79-.61,1.89,2.53,3.89,5.05,6.98,6.18,.96,2.84,3.17,4.94,6.1,5.66,1.54,1.23,2.91,2.63,4.32,4,2.24,2.19,5.43,3.15,7.52,5.48,.35,1.67-1.55,2.7-2.96,2.06-2-.7-3.75-1.91-5.59-2.92,.29,.37,.85,1.09,1.14,1.46,.07,2.89,1.09,8.58-3.62,7.63-3.61-1.78-4.06-7.1-4.38-10.8,.74,.02,2.24,.07,2.99,.09-.03-.5-.1-1.5-.13-2-1.7-1.96-3.65-3.7-5.93-4.98-1.85,5.08-2.46,10.71-5.31,15.36-1.22,2.02-3.22,1.2-4.94,.42,1.36-1.42,3.25-2.59,3.74-4.62,1.42-4.54,2.84-9.09,3.69-13.77-2.52-2.84-5-5.71-7.41-8.64Z"/>
    <path class="cls-10" d="M369.11,160.57c-.59-2.06,1.26-3.04,2.59-4.12l.4,2.84c3.43,2.45,6.44,5.52,8.67,9.09-.24,1.25-.51,2.48-.81,3.71-2.32,.05-4.64-.01-6.94-.15,1.15,2.52,1.74,5.23,1.91,7.99-1.54,.51-3.08,1.02-4.65,1.45-.72-2.15-1.37-4.34-1.93-6.54-5.69,1.27-11.25,4.43-17.24,3.13-1.42-1.95-.76-4.51-1.02-6.75,1.67-3.12,4.13-5.74,7.3-7.37-.42,1.25-.84,2.49-1.28,3.73,.06,1.91,.17,3.81,.29,5.72,3.23,.35,6.37-.42,9.39-1.51-2.17-2.28-4.21-4.68-6.03-7.24,1.37-2.24,2.73-4.88,5.78-4.72-.11,3.24,1.57,5.87,3.85,7.98,2.38-1.15,4.98-.91,7.53-.74-2.46-2.35-5.51-3.99-7.81-6.5Z"/>
    <path class="cls-10" d="M372.73,237.57c-.43-3.42,1.72-6.37,5.06-7.1-.02,.91-.07,2.73-.09,3.64-1.39,1.22-1.87,2.92-1.92,4.71,2.19,.81,4.56,1.79,6.91,1.07,1.43-1.1,1.13-2.96,1.29-4.54l-1.48-.36c-.41,1.88-1.63,2.67-3.65,2.37,.32-2.16,.73-4.3,1.17-6.44,2,.39,4,.8,6.01,1.17,.89,2.68,1.61,5.68,.37,8.39-2.42,6.32-14.34,4.1-13.67-2.91Z"/>
    <path class="cls-10" d="M38.05,236.96c2.93-3.75,8.39-3.16,12.6-4.17,.1,.98,.31,2.95,.42,3.93-3.41,.67-7.06,.82-10.15,2.55-.47,1.9,.46,3.41,2.54,3.02,2.9-.16,5.72-.87,8.55-1.43,.15,1.33,.29,2.67,.42,4-4,.68-8.21,2.21-12.23,.97-2.82-1.91-2.91-5.9-2.15-8.87Z"/>
    <path class="cls-10" d="M48.43,276.21c4.26-1.9,8.42-4.03,12.8-5.65,2.47,4.07-1.69,7.32-3.52,10.63,2.41-1.02,4.82-2.03,7.27-2.93,.15,1.24,.23,2.49,.26,3.74-3.94,2-8.04,3.68-12.09,5.44-2.66-4.03,1.58-7.32,3.33-10.67-2.23,.95-4.4,2.1-6.79,2.61-.48-1.04-.86-2.11-1.26-3.17Z"/>
    <path class="cls-10" d="M66.45,308.8c3.67-2.61,7.24-5.33,10.84-8.03,.69,.94,1.43,1.85,2.03,2.86-.54,2.8-1.8,5.38-2.71,8.07,2.01-1.33,3.97-2.73,5.95-4.09,.5,.76,1.51,2.28,2.02,3.03-3.44,2.49-6.65,5.32-10.26,7.55-1.71,.64-2.45-1.21-2.69-2.56,.6-2.73,1.8-5.28,2.76-7.9-2.02,1.45-4.03,2.92-6.01,4.43-.65-1.12-1.3-2.24-1.93-3.36Z"/>
    <path class="cls-10" d="M340.89,308.81c1.52-1.12,3.52-.53,5.26-.71-.46,1.12-.91,2.25-1.36,3.38-1.19,.25-2.36,.57-3.5,.96-1.01,3.73,3.4,6.4,6.73,5.62-.06-1.56-.16-3.13-.3-4.68,1-.54,2-1.08,3-1.61,2.43,3.91,.24,9.11-4.2,10.19-4.65,.64-8.13-3.43-9.54-7.42,1.02-2.07,1.85-4.46,3.91-5.73Z"/>
    <path class="cls-10" d="M166.7,366.61c3.4-1.8,8.65-.15,9.7,3.78,.92,2.53-.29,5.29-1.5,7.52-3.04,4.57-11.62,2.18-11.82-3.35-.16-2.97,.95-6.36,3.62-7.95Zm1.31,3.59c-.43,1.75-1.11,3.5-.92,5.35,.88,1.18,2.05,1.65,3.53,1.42,2.13-2.29,3.12-6.08,.17-8.11-.7,.33-2.09,1-2.78,1.34Z"/>
    <path class="cls-10" d="M179.44,368.58c3.28,.21,6.54,.68,9.76,1.37-.09,.76-.28,2.27-.37,3.03-1.93-.37-3.85-.75-5.79-1.09-.06,.59-.18,1.77-.24,2.35,1.51,.31,3.03,.59,4.55,.88-.08,.72-.24,2.16-.33,2.88-1.63-.35-3.26-.69-4.89-1.02-.2,1.75-.39,3.49-.58,5.26-1.36-.05-2.72-.11-4.08-.17,.42-4.53,1.39-8.98,1.97-13.49Z"/>
  </g>
  <g>
    <path class="cls-15" d="M126.14,47.9c3.67-1.91,7.41-3.8,11.41-4.87,1.99-.09,5.14,.91,4.65,3.47-.25,2.57-3.05,3.66-4.9,4.93-.13-.99-.39-2.96-.52-3.95-3.46,.4-7.18,.99-9.84,3.46-.15,1.13-.23,2.27-.26,3.41,2.74-.4,5.51-.72,8.28-.47,.02,.62,.07,1.85,.09,2.47-2.14-.37-4.26-.84-6.39-1.3,.42,2.04,.89,4.42,2.89,5.51,3.6-2.12,8.11-5.44,12.22-2.52,0,3.82,1.54,7.55,.91,11.37-1.12,.9-2.3,1.69-3.56,2.38,3.27,1.23,6.45-.36,9.64-1.02,1.22,1.02,1.5,2.23,.83,3.64-3.85,2.72-8.96,2.25-13,.21-.77,.9-1.52,1.82-2.36,2.66-3.98-1.76-8.22-3.31-11.45-6.34l2.2,.27c1.72-3.49,5.26-7.71,1.45-11.19-.21,1.03-.63,3.1-.83,4.13-2.7-.04-4.65-1.93-6.49-3.65-2.08,4.03-4.26,8.07-5.39,12.51-1.33-.47-2.66-.94-3.99-1.4,.8-5.94,.57-13.35,5.98-17.24-.53,2.21-.87,4.47-.95,6.75,1.76-2.43,3.16-5.09,4.85-7.57,.8-1.31,1.92-2.63,1.38-4.34,1.03-.48,2.09-.91,3.15-1.31Zm-4.48,10.6c1.28,1.41,2.63,2.76,4.03,4.05,1.97-2.71,1.08-5.66-.63-8.19-1.18,1.34-2.29,2.74-3.4,4.14Zm11.49,2.99c.81,2.31,1.9,4.59,4.83,3.68-.06,1.79-.04,3.58,.12,5.36,.73-.5,2.2-1.5,2.94-2,.24-3-.7-5.91-1.26-8.83-2.31,.18-4.51,.91-6.63,1.79Zm-4.6,10.74c2.34,.9,4.67,1.84,7,2.78,.36-.59,1.08-1.78,1.44-2.37-.38-.74-1.16-2.21-1.55-2.95-.65,.08-1.94,.23-2.59,.3,.66-1.72,.62-3.5-.34-5.14-1.33,2.45-2.59,4.95-3.96,7.38Z"/>
    <path class="cls-15" d="M39.92,250.47c4.57-1.03,9.08-2.3,13.64-3.39,.23,1.29,.47,2.59,.71,3.89-4.41,1.21-8.84,2.35-13.27,3.45-.37-1.32-.73-2.63-1.08-3.95Z"/>
    <path class="cls-15" d="M109.12,335.3c2.74,1.84,5.65,3.59,7.71,6.23,1.13,3.14-2.05,5.34-4.8,5.63-.25,2.17-.64,4.33-1.04,6.49-1.12-.71-2.23-1.41-3.34-2.11,.19-2.52,.4-5.05,.42-7.58-1.47,1.51-2.87,3.09-4.28,4.67-.91-1.04-3.18-2.11-1.85-3.73,2.18-3.35,4.82-6.37,7.18-9.6Zm1.2,4.58c-.32,1.05-.6,2.11-.85,3.18,1.35,.03,2.71,.03,4.08,0-.91-1.21-1.71-2.68-3.23-3.18Z"/>
  </g>
  <g>
    <path class="cls-6" d="M1172.69,45.77c6.09,1.02,10.36,5.94,14.83,9.76,2,1.04,4.24,1.65,6.27,2.7,4.05,2.32,8.99,1.09,13.18,3.07,6.18,2.95,13.09,.8,19.57,2.22,8.52,1.03,14.09,8.41,19.37,14.41,.29,1.9,.62,3.78,.99,5.67-3.34,1.12-6.37,2.96-8.95,5.35-3.24,.21-6.47,.53-9.68,.89-2.15,5.44-5.16,10.53-6.62,16.23,9.22,1.37,18.88-1.81,27.79,1.85,11.56,4.56,24.11,5.02,36.16,7.51,9.06,3,16.99,9.92,19.95,19.16,3.63,5.19-.87,10.8-4.48,14.5-4.02,2.61-8.64,4.9-13.56,4.7-2.84-.17-5.59,.5-8.02,1.94-3.2-.77-6.44-1.36-9.71-1.57-.93-.82-1.84-1.65-2.74-2.46,1.36-4.01,2.38-8.28,5.11-11.64,1.25-1.7,2.86-3.83,1.72-6.03-2.43-3.23-6.82-3.53-10.41-4.6-6.4-1.41-11.9-5.22-18.1-7.17-4.92-1.14-10.04,.02-14.97-1.11-4.21-.49-9.7-1.15-12.56,2.7-3.29,5.14-2.7,11.51-3.08,17.33,4.27-.9,9.15-2.7,13.3-.36,2.97,1.72,5.99,3.37,9.01,5.03,5.49,3.11,9.32,8.69,10.94,14.71-1.27,5.46-9.19,7.59-12.92,3.34-4.2-4.53-7.23-10.05-11.7-14.34-3.67-3.18-10.69-.18-10.11,4.91-.21,7.82-.76,15.65-.21,23.46,6.86-.96,13.33-4.83,20.4-3.77,5.88,1.27,11.3,4.09,17.22,5.27,5.95,1.55,13.18,2.45,16.68,8.23,2.32,4.07,5.82,7.95,5.91,12.88,.53,4.42-4.39,6.08-6.99,8.65-.35,6.46-5.67,11.1-6.51,17.43-2.1,2.44-3.88,5.12-5.6,7.83,.59,4.53-2.53,7.99-5.7,10.7-1.29,3.94-5.25,5.4-9.03,5.74-2.68,.09-5.21,1.21-7.87,1.23-2.11-1.14-3.32-3.38-5.13-4.87-1.64,.25-3.22,.65-4.8,1.03,1.61,4.6,4.76,8.44,8.26,11.76,3.84,4.18,9.98,4.03,15.01,5.82,7.12,2.54,16.06,2.22,21.13,8.71-.13,2.68-1.09,5.26-.95,7.96,.56,4.08-4.03,6.69-7.45,7.54-6.16,.34-12.76,.57-18.46-2.18-2.56-.94-5.45-.74-7.79-2.26-11.61-6.63-22.66-16.03-27.27-28.95-.49-1.13-1.55-1.86-2.56-2.46-6.7,.92-12.68,4.47-19.31,5.74-3-.86-5.02-3.38-5.58-6.4-1.92-8.13-5.65-15.83-10.94-22.3-4.66-6.93-8.69-14.37-11.42-22.27-.52-6.49,1.72-13.63,6.79-17.94,1.96-1.79,4.64-2.11,7.2-2.03,0,2.54-1.15,4.55-3.68,5.19-3.45,.97-5.19,4.81-4.15,8.13,1.91,7.24,6.49,13.37,11.05,19.17,2.46,3.1,4.07,6.77,5,10.61,.8-.47,1.62-.94,2.46-1.4,.83,5.62,4.84,9.81,7.2,14.77,4.79-.64,8.94-3.34,13.62-4.44,.29-6.79,1.96-13.47,1.47-20.3-4.37,.08-8.86,.33-13.03-1.17-1.13-.85-.58-2.29,.2-3.15,3.76-3.57,10.18-2.2,13.5-6.38,.54-4.74,.07-9.56,.03-14.32-4.09,1.72-7.65,4.38-11.05,7.18-4.45,3.97-10.45,5.24-15.52,8.16-3.14,2.02-6.66,.46-9.26-1.6-.56-3.14-1.27-6.26-1.31-9.45,4.26-.24,8.66-.64,12.5-2.7,5.03-2.55,9.8-5.68,15.16-7.58,2.34-2.37,5.75-3.73,7.62-6.49,1.19-6.29,.33-12.8,.53-19.18-3.84,4.83-7.92,10.37-14.25,11.89-5.27,1.36-9.64-2.97-11.88-7.23-3.77-7.51-4.82-16.05-4.78-24.36-10.04,3.66-18.52,10.47-27.79,15.65-5.31,3.66-12.28,3.5-17.47,7.39-4.5,2.88-6.92,8.01-11.44,10.85-1.62,1.05-3.89,1.72-5.46,.24-4.24-3.32-9.34-6.86-10.33-12.55-1.09-4.64-.47-10.13,3.13-13.55,4.61-3.38,10.27-5.58,13.72-10.39,4.81-6.7,10.92-12.35,17.35-17.47,3.31-2.73,5.97-6.33,9.94-8.21,5.4-2.68,11.12-4.64,16.51-7.35,4.65-2.28,10.25-1.89,14.47,1.17-.25,1.85-.18,4.17-2.15,5.12-3.35,1.62-7.38,2.02-10.08,4.84-4.15,4.13-6.88,9.4-10.34,14.09,3.56-.97,6.54-3.23,9.96-4.54,7.53-2.85,14.21-7.53,21.8-10.25,6.02-2.4,12.25-4.22,18.39-6.27,3.26-1.26,7.25-2.86,8.24-6.61,1.62-5.45,4.53-10.49,5.32-16.18-4.36-2.76-9.46-3.68-14.39-4.79-5.1-1.09-8.92-4.85-13.51-7.02-2.68-3.8-7.55-5.2-10.05-9.12-4.5-6.91-4.78-15.86-2.86-23.65Zm7.38,92.46c-2.24,7.66-1.91,16.98,3.5,23.26,1.79,2.18,4.87,1.56,6.76-.15,3.61-3.01,7.61-5.7,10.53-9.43,1.67-6.98,.18-14.27,1.37-21.34-8.07,.31-14.6,5.57-22.16,7.66Zm35.69,49.89c.17,6.31-.35,12.63,.14,18.93,3.57,.3,7.73-.06,10.64,2.44,2.64,2.17,1.9,6.55-.41,8.69-2.57,2.81-6.63,2.91-10.09,3.67-.8,4.8-1.06,9.75,.73,14.39,5.57,.2,11.82-.24,15.95-4.49,5.2-5.54,7.38-13.06,9.87-20.06,1.65-4.57,5.25-8.26,6.36-13.04-.24-3.31-2.53-6.7-5.84-7.64-8.61-3.24-18.35-6.82-27.35-2.89Z"/>
    <path class="cls-6" d="M695.53,50.96c3.37,.51,7.03,1.33,9.13,4.3,4.19,5.62,6.83,13.12,4.7,20.08-1.53,5.5-5.52,9.86-7.38,15.22-1.04,2.79-.8,5.8-.83,8.72,3.62,.33,7.6,.75,10.9-1.15,4.08-2.38,9.03-2.38,13.2-4.6,3.94-2.01,8.8-4.23,13.12-1.97,2.97,1.41,2.79,5.21,3.29,7.97,.48,3.52-3.43,4.19-5.83,5.25-3.95,1.37-6.8,4.77-10.85,5.93-7.14,2.1-14.72,1.33-21.99,2.61-3.01,1-3.88,4.52-4.81,7.19-1.7,6.65-2.18,13.56-2.33,20.4,8.29,1.28,16.82-1.42,24.91,1.28,3.83,1.04,8.13,1.75,10.91,4.89,1.54,1.89,3.96,3.68,3.68,6.42,.24,4.5-3.35,8.95-7.84,9.46-5.93-.17-11.11-3.85-17.02-4.14-2.44,1.73-4.16,4.27-6.63,5.95-2.71,2.08-6.15,3.49-7.85,6.61-.56,3.41,.7,6.77,1.18,10.12,.78,3.13,.89,6.66,2.87,9.34,5.82,2.55,12.56,2.16,18.28,5.02,6.52,4.1,9.07,12.28,8.75,19.64-.95,4.27-3.53,7.95-5.88,11.57-2.2,3.66-7.02,4.35-9.36,7.9-1.47,1.51-1.02,3.7-.95,5.6,8.75,5.57,17.3,14.06,18.4,24.88,.85,4.66-2.49,8.32-5.22,11.61-.74-.02-2.2-.06-2.93-.08-.35,.52-1.03,1.56-1.38,2.08-5.68,.2-11.31-1.59-15.86-4.98-6.8-5.01-15.03-8.85-23.68-8.12-4.89-2.97-8.76-7.28-12.39-11.63-2.86-3.29-2.07-7.96-2.71-11.96-.28-5.1-1.42-11,1.86-15.39,4.04-3.09,8.06-6.49,13.04-7.91,2.61-.58,3.51-3.16,4.15-5.43-1.23-.93-2.45-1.86-3.66-2.78-8.31,1.1-16.68,1.37-25.05,1.52-3.82,.07-8.29-.92-10.28-4.54-2.67-4.71-3.81-10.13-4.89-15.38,.68-2.91,2.83-6.17,6.23-5.85,4.22-.33,6.22,4.1,8.82,6.62,6.65-.26,13.53,.89,20.03-.92,4.61-1.3,3.98-7.13,4.62-10.87-.05-4.36,2.89-7.87,3.76-11.99-2.03-5.05-8.39-6.45-13.22-5.17-5.27,1.45-10.33,3.55-15.63,4.89-1.62,2.12-2.52,5.5-5.51,6.01-3.63,.36-7.12-1.17-10.51-2.2-3.97-6.26-4.37-14.86-.61-21.32,4.17,.3,8,3.54,12.26,1.98,5.51-1.67,10.79-4.04,16.38-5.5,2.57-1.05,6.46-1.68,6.9-5.02,1.12-5.59,2-11.25,2.2-16.96-6.28-2-12.8-3.16-19.01-5.37-.87-4.1,.36-8.47,4-10.82,3.91-3.44,9.34-.77,13.82-2.24,2.87-1.59,6.3-3.63,6.76-7.21,1.62-7.31,1.69-14.96,4.29-22.05,2.22-5.98,1.79-12.64,4.35-18.5,1.74-3.02,4.22-5.61,5.3-9.01Z"/>
    <path class="cls-6" d="M2474.65,63.74c6.62-5.63,15.02-9.67,23.82-9.85,6.7-.16,12.21,4.75,15.59,10.1,2.9,4.55,2.17,10.26,1.73,15.36-.04,2.07-2.37,2.77-3.66,3.96-.96,3.52-1.57,7.22-3.5,10.38-1.68,2.81-5.14,3.45-7.58,5.31-4.95,4.27-9.44,9.52-10.66,16.14,9.02-.03,18.13-1.21,27.04,.84,6.41,1.6,13.1-.06,19.49,1.63,4.31,.96,9.03,1.04,12.79,3.67,4.75,3.12,10.19,5.78,13.34,10.74,3.68,5.43,8.2,10.43,10.45,16.7v5.58c-.55,2.24-1.53,4.34-2.51,6.4-3.12,.58-6.33,.97-9.25,2.22-2.4,1.01-4.45,3.11-7.18,2.94-6.64,.02-13.1,1.91-19.69,2.11-3.34-1.43-5.3-4.78-7.16-7.71-1.79-2.55-1.39-6.42,.92-8.52,1.92-2.22,4.98-3.98,5.19-7.23,.1-4.55-3.23-8.32-7.06-10.32-6.91-4.31-15.36-4.16-23.21-4.14-4.11,.1-8.38-.49-12.29,1.04-12.15,4.44-24.86,7.26-36.76,12.4-11.77,4.78-23.28,10.17-35.21,14.52-7.33,2.56-14.2,6.67-22.13,7.03-9.82,17.97-6.16,39.5-12.68,58.44-3.11,6.89-2.95,14.59-4.38,21.89-4.66-3.63-10.83-4.14-15.48-7.76-1.06-2.43-2.37-4.75-3.33-7.22-1.02-2.07,.46-4.15,1.14-6.07,1.37-2.91,1.94-6.09,3.05-9.09,2.49-5.21,3.03-11.05,4.6-16.56,.85-5.32,3.18-10.28,3.56-15.69,.42-4.72,2.62-8.98,3.68-13.54,1.49-10.33,4.67-20.32,7.58-30.32,3.72-7.58,4.75-16.09,8.29-23.73,5.92,2.86,10.86,7.98,12.85,14.32,.69,2.1-.71,3.99-1.46,5.84-1.85,3.55-1.84,7.62-2.4,11.48,9.81-.77,18.66-5.36,27.46-9.38,10.34-5.08,21.15-9.54,30.26-16.74-.08-2-.34-4.03,.02-6.02,2.73-2.84,6.96-2.66,10.61-3-.09-.5-.28-1.5-.37-2-.98-.72-1.9-1.43-2.81-2.15,3.03-3.14,5.64-6.66,8.58-9.89,4.56-5.3,7.07-12.02,11.72-17.25,3.3-3.85,6.69-8.06,7.46-13.25-3.07-4.89-11.51-6.4-14.92-1.11-3.27,4.7-6.13,9.79-8.2,15.12,.38,3.24,1.12,6.44,1.29,9.71-4.93-.12-9.98,.67-14.79-.57-5.73-1.74-6.26-8.55-9.52-12.67-2.44-.99-3.56,1.86-4.92,3.24-2.43,3.38-6.71,5.44-7.94,9.61-.75,4.66,.69,9.29,1.03,13.92-4.22,.46-8.44,1.76-12.68,1.08-4.08-.71-6.53-4.42-8.3-7.82-2.54-4.61-2.83-10.13-2.01-15.22,.55-1.57,1.02-4.33,3.27-3.83,4.1,.88,6.69,4.58,10.29,6.46,3.62,.28,6.05-2.93,8.35-5.24,4.89-5.48,11.71-10.53,19.44-9.94,3.77,.09,6.57,3.03,10.12,3.94,3.64-2.84,5.44-7.37,9.03-10.29Z"/>
    <path class="cls-6" d="M1727.26,61.47c3.28,1.33,5.63,4.12,8.84,5.59,3.15,2,6.71,3.92,8.57,7.3,3.27,5.61,6.76,11.47,7.13,18.12,.47,4.84-1.86,9.28-2.76,13.92-.64,3.31,.29,6.66-.07,9.98-.81,3.74-2.82,7.21-2.9,11.1-.19,5.15,.22,10.33-.35,15.46-1.34,8.75-3.02,17.49-3,26.37,2.96-.12,5.85-.83,8.69-1.67,4.45-1.45,9.16,.09,13.69-.72,2.82-1.17,5.1-3.8,8.37-3.75,7.83-.14,14.79,4.24,21.15,8.33,1.85,2.63,4.91,5.8,2.84,9.15-.17,1.63-.29,3.26-.38,4.89-2.17,.74-4.24,1.81-6.51,2.15-3.36-.14-6.69-1.03-10.04-.65-3.34,.81-6.44,2.57-9.91,2.8-4.12,.32-8.37-.05-12.29,1.48-3.06,1.22-6.25,2.07-9.39,2.98-1.24,.44-2.75,1.04-3.06,2.46-1.02,3.76-.7,7.72-1.31,11.55-1.94,13.36,.03,26.84,.63,40.22,1.05,10.96,1.23,21.98,1.04,32.98-.09,6.95-.86,13.89-2.41,20.67-3.83,.07-7.02-2.11-10.32-3.69-.9-4.82-4.89-7.66-7.97-11.04-2-7.54,.4-15.31,.6-22.94-.02-13.02-.21-26.05,.06-39.07-.37-6.92,.72-13.89-.46-20.77-2.84-.24-5.58,.61-7.79,2.38-4.4,3.42-10.05,4.27-14.93,6.74-5.88,2.95-13.94,1.12-17.2-4.78-2.2-3.66-6.28-5.68-8.48-9.34-2.17-3.47-2.53-7.63-3.32-11.54,6.8-1.03,13.17,4.15,19.86,1.69,4.62-1.58,8.44-4.77,12.77-6.96,2.95-1.6,6.62-1.68,9.09-4.18-3.48-3.16-7.93-4.67-12.27-6.18-4.62-1.59-7.81-5.47-11.66-8.25-2.89-2.11-5.55-4.51-8.54-6.44-2.26,3.02-.69,7.14-1.02,10.65,.83,.76,1.12,1.67,.88,2.73-1.01,4.35-2.57,9.27-7.15,11.01-1.41,1.81-2.91,3.58-4.87,4.79-4.55,2.93-8.96,6.73-10.85,11.96-2.02,8.05-2.17,16.35-3.27,24.54-.26,9.05,.33,18.63-3.44,27.09-1.55,3.71-5.6,5.11-9.35,4.72-.59-1.6-1.02-3.24-1.71-4.78-1.55-2.5-4.69-3.55-6.14-6.12-1.3-4.83-1.88-9.89-2.02-14.87,1.44-5.29,2.65-10.75,1.5-16.24-4.14,1.64-7.97,3.94-12.09,5.57-7.88,3.33-16.39,6.32-22.19,12.94-3.81,1.63-7.89,2.61-12.04,2.46-1.95-3.62-5.79-5.39-8.48-8.29-2.21-4.36-.81-9.93,2.71-13.21,3.93-3.76,7.96-7.52,10.73-12.28,3.24-5.59,8.49-9.48,12.55-14.4,2.96-3.14,6.75-5.33,10.12-7.99,.53-.96,1-1.96,1.43-2.99,3.29-1.79,7.37-3.01,10.94-1.21,4.02,1.73,5.76,6.56,5.07,10.66-.33,3.52-4,4.85-6.3,6.92-4.06,3.79-10.46,4.61-13.13,9.9,4.64-1.91,9.3-3.93,13.49-6.73,3.66-2.87,6.9-6.26,10.05-9.68,3.04-3.24,1.76-8,3.25-11.87,1.34-3.92,2.5-7.97,2.19-12.17-20.94,3.88-42.16,7.69-61.84,16.14-3.64,1.13-4.06,5.47-6.32,8.03-2.8,.05-5.5-.87-8.22-1.28-3.89-3.86-7.17-8.74-7.71-14.31-.11-2.4,.28-5.47,2.47-6.89,3.51,.54,6.51,2.74,10.03,3.29,2.29,.34,4.22-1.22,6.15-2.22,.86,.14,1.74,.29,2.64,.43,5.16-2.57,10.81-3.9,16.26-5.73,2.3-.82,4.83,.22,7.15-.67,3.3-1.05,6.6-2.12,9.81-3.47,1.97-.02,4-.24,5.82-1.13,4.2-1.94,8.96-1.25,13.46-1.29,2.9-2.67,6.51-4.08,10.33-4.83,6.83-6.52,5.13-17.26,9.76-24.95,6.4-1.59,11.01,3.8,15.12,7.74,2.63,2.43,3.14,6.93,6.83,8.22,.89,.42,1.81,.83,2.77,1.23,4.04,5.63,10.97,7.73,16,12.24,5.14,1.61,9.77,4.65,15.31,4.89,5.87,2.6,9.9,8,14.61,12.19,.8,.88,2.07,.63,3.17,.83,1.82-8.54,1.15-17.28,1.76-25.91-.98-3.22-4.73-4.95-7.86-5.41-6.65-.34-11.18-5.85-15.28-10.44-4.52-5.53-9.71-10.94-11.82-17.94,4.61-1.3,9.65-1.03,13.92,1.27,3.59,1.59,6.05,5.11,9.97,6.07,4.55,1.13,7.71,4.83,11.48,7.36,1.44-3.56,1.71-7.44,2.74-11.11,1.1-3.83,.16-7.82,.24-11.72-.01-5.74,.82-11.77-1.81-17.12,.4-6.1-4.19-10.97-4.88-16.86-.19-2.09,.6-4.1,1.07-6.1Zm-58.07,92.01c-1.32,5.2-3.35,10.2-4.31,15.48,5.22-2.43,9.81-6.34,12.8-11.29,1.03-1.9,2.51-4.48,.92-6.49-3.32-.37-6.25,1.64-9.41,2.3Z"/>
    <path class="cls-6" d="M968.43,66.72c.91-2.45,4.04-1.68,6.09-1.57,5.24,1.48,8.15,6.65,10,11.39,1.75,4.79,3.55,9.83,3.09,15.01-.65,7.24-.49,14.52-.73,21.79,4.51,1.03,9.13,.2,13.7,.55,3.43,.5,6.63,1.97,10.09,2.42,2.98,2.17,6.43,3.56,9.56,5.5,2.41,2.99,4.71,6.6,4.01,10.64-.63,3.91-.93,9.29-5.35,10.81-5.3,2.02-11.12,.69-16.61,.48-.95,1.61-1.89,3.23-2.8,4.86-5.11,2.1-9.59,5.86-11.71,11.05-2.38,6.33-3.53,13.22-2.83,19.97,.21,1.79,.85,3.87,2.62,4.7,6.57,3.27,13.72,5.23,20.91,6.57,7.09,.05,14.14,.89,21.16,1.84,6.53,.83,13.48,.15,19.55,3.13,4.47,2.19,8.88,4.47,13.43,6.49,2.2,1.13,5.41,3.06,4.31,6.03-1.4,3.76-2.69,8.03-5.82,10.7-5.07,1.12-10.12,2.4-15.15,3.68-8.49,.89-17.26,.99-25.51-1.45-4.81-1.27-9.16-3.82-14-5.01-7.67-2.05-13.41-8.45-21.32-9.86-.24,7.02-.07,14.05,.51,21.05,.51,15.99-.17,31.99-.55,47.96-1.89,4.26-7.4,5.08-11.52,5.8-1.85-3.67-6.42-4.93-7.74-8.91-2.55-6.32-5.27-12.9-4.9-19.86,.31-7.05,2.61-13.85,3.01-20.89,.46-11.83,.69-23.86-2.35-35.41-4.87,.19-9.83,0-14.12-2.54-3.1,1.61-5.58,4.2-8.06,6.61-3.14,3.94-7.61,6.44-10.97,10.16-3.91,3.4-7.07,9.26-12.99,8.86-3.32,.52-5.21-2.54-6.9-4.82-2.97-4.64-5.39-10.81-2.48-16.06,2.01-3.34,3.18-7.48,6.56-9.74,6.15-4.36,12.55-8.35,19.05-12.18,5.8-3.3,9.61-8.95,14.39-13.46,3.24-4.02,8.9-5.95,10.41-11.27-4.14-.01-8.3,.45-12.32,1.38-5.77,2.49-11.18,6.36-17.64,6.83-4.95,.41-9.19-2.61-13.07-5.27-.67-3.91-4.34-5.86-6.21-9.08-1.26-2.03-3.29-3.35-5.04-4.9-2.55-1.84-1.76-6.17,.92-7.53,2.25-1.27,4.54-3.78,7.34-2.85,7.28,1.81,14.9,.58,21.94-1.68,9.37-2.86,18.77-5.72,27.86-9.42,3.65-1.33,6.42-4.74,6.84-8.62,1.52-8.89,3.9-18.01,1.99-27.03-.85-5.53-3.03-11.4-.65-16.85Z"/>
    <path class="cls-6" d="M600.47,72.48c.43-2.2-.01-4.61,1.25-6.6,4.21,1.43,8.92,3,11.3,7.08,3.2,5.47,.51,12.07,2.39,17.86,1.6,4.91,.32,10.59,3.53,14.98,8.48,.95,16.48,4.77,22.99,10.2,.14,.7,.41,2.1,.55,2.8,2.6,2.99,2.64,7.14,1,10.61-4.13,5.56-11.61,5.86-17.87,6.73-3.15,1.77-5.69,4.65-9.22,5.75-7.97,1.13-14.45,6.95-19.18,13.12-2.78,6.2-6.16,12.37-6.91,19.23,3.35-.37,6.45-1.78,9.18-3.73,4.51-3.18,9.66-5.23,14.57-7.68,3.69-1.69,6.28-4.93,9.52-7.26,4.65,3.72,1.03,9.53-.35,13.98-.14,4.31,.62,9.39-3.29,12.4-9.32,7.27-18,15.34-26.76,23.28-2.2,2.1-4.39,4.28-5.99,6.89-.99,2.29-.39,4.9-.45,7.32,.42,5.77-2.13,11.27-1.68,17.05,.5,8.69-.74,17.37-.09,26.06,.21,3.37,.31,6.74,.12,10.11-2.47,.25-4.89,.97-7.36,.99-3.26-.81-6.42-2.16-9.03-4.3-4.52-3.1-5.46-8.88-7.93-13.42-3.93-7.47-2.7-16.13-1.66-24.14-8.8,.45-16.44,5.89-22.66,11.71-2.09,1.58-4.65,2.37-6.99,3.48-3.52-2.31-6.61-5.17-9.73-7.97-1.83-.42-4.72-.13-5.2-2.52-1.62-7.16-1.9-16.44,4.57-21.41,7.55-7.11,15.15-14.18,22.36-21.64,3.12-3.25,5.44-7.24,8.96-10.11,2.47-1.39,5.22-2.36,8-2.97,3.13,.23,6.36,.94,9.31-.56,1.9-5.01,1.51-10.54,3.49-15.53,.86-2.17,1.1-4.5,1.19-6.82-12.9,2.34-25.57,7.34-38.87,6.55-9.61-1.27-19.04-5.74-25.48-13.09-3.61-5.12-5.04-12.19-2.68-18.12,3.52,.53,5.98,3.18,8.98,4.8,5.8,1,11.8,.14,17.07-2.5,15.85-5.64,30.38-14.29,45.62-21.33,2.81-1.3,5.03-3.51,7.52-5.3,1.25-3.47,2.5-6.99,4.49-10.12,.03-.74,.08-2.22,.1-2.96,3.25-3.58,4.01-8.41,4.79-12.99,.35-4.3,5.1-6.12,6.53-9.91Z"/>
    <path class="cls-6" d="M1946.53,69.74c4.24-1.52,8.75,.22,12.57,2.13,3.11,1.55,6.22,4.78,5.07,8.57-2.86,3.96-8.37,3.9-12.05,6.72-6.71,4.65-13.51,11.06-14.57,19.57,2.37-1.1,3.75-3.32,5.26-5.35,1.4,.68,2.63,1.66,3.9,2.59,1,3.87,3.64,7.27,3.36,11.43-7.12,2.85-14.12,6.29-19.9,11.4-1.83,7.74-6.29,15-5.35,23.22,4.28-.68,9.49-3.31,13.28,0,2.13,1.82-.11,4.56-.45,6.74,.76,.12,2.28,.35,3.04,.46,.47,3.23,2.96,6.47,1.29,9.69,1.39,.35,2.79,.71,4.23,1.08-.07,.52-.2,1.55-.27,2.07-2.75,.69-5.59,.63-8.34,1.09-2.1,1.33-4.07,2.88-6.28,4-1.62,2.15-3.93,3.5-6.09,4.99-1.64,2.52-2.41,5.49-3.77,8.15-1.04,2.32-2.84,4.46-2.66,7.14-.42,19.5-3.06,38.86-3.94,58.33-.25,3.91-1.22,7.88-.3,11.78,.49,2.98,1.56,5.94,1.25,9.01-.64,3.76-2.93,7.21-6.16,9.22-2.18,.48-4.43,.22-6.6,.32-4.43-5.84-12.47-7.48-16.43-13.72-2.01-3.93-2.53-8.42-4.49-12.38-2.91-6.01-4.38-12.84-8.93-17.92-2.58,.32-5.12,.81-7.69,.88-2.95-1.25-6.03-2.22-8.86-3.69-2.82-1.95-3.07-5.77-2.78-8.88,.5-5.94,3.63-11.22,4.68-17.05,4.98-6.3,13.22-8.42,18.59-14.27,6.61-6.54,10.91-14.94,17.02-21.89,1.07-1.41,2.75-2.04,4.34-2.71,2.42-3.22,5.73-5.63,8.22-8.79,2.2-2.7,1.1-6.38,1.73-9.54,1.39-7.11,2.32-14.3,3.84-21.39-11.71,.73-23.16,3.56-34.35,6.92-5.67,1.67-11.21,3.81-17.01,4.94-8.76,1.36-17.75,.36-26.21-2.15-2.89-.92-5.23-2.89-7.52-4.77l-.24-1.96c3.32-.09,6.37,1.28,9.54,2.05,6.38,.37,12.81-.36,19.09-1.58,4.19-.75,7.83-3.22,12.02-4.03,5.5-1.1,10.62-3.46,16-4.98,4.31-1.31,8.93-.79,13.27-2.01,5-1.27,9.93-2.85,14.72-4.82,3.69-1.4,6.1-4.86,7.61-8.38,2.83-6.67,4.52-13.79,7.58-20.39,2.32-5.26,6.51-9.31,10.01-13.78,2.61-3.31,5.53-6.81,9.73-8.07Zm-49.14,134.84c-2,5.27-5.78,9.48-8.86,14.09-2.21,3.15-3.04,6.97-3.71,10.69-4.21,2.03-3.29,7.15-1.57,10.6,3.2,6.84,7.58,13.1,12.04,19.17,3.16,.38,5.37-2.82,5.7-5.66,2.46-18.42,2.08-37.06,3.87-55.54-3.37,1.3-3.83,5.76-7.47,6.65Zm12.95,5.91c-.03,15.25-2.32,30.41-2.34,45.65,1.28-1.91,1.35-4.26,1.58-6.48,.71-9.7,1.37-19.41,1.7-29.13,.2-6.07,1.18-12.19,.18-18.24-.77,2.67-1.17,5.42-1.12,8.2Z"/>
    <path class="cls-6" d="M1999.97,93.47c2.7-8.46-2.81-17.19,.35-25.62,3.78,.2,8.29-.27,11.19,2.7,3.52,3.36,6.54,7.38,8.34,11.95,.23,6.24-2,12.41-1.69,18.64,2.8-.45,5.5-1.93,8.43-1.4,7.77,.92,14.47,5.48,20.86,9.69-.3,2.93-.25,5.93-.96,8.79-5.72,4.69-13.08,6.62-19.96,8.95-3.33,1.24-7.28,1.8-9.63,4.7-4.08,4.49-7.01,9.95-9.06,15.62-.76,1.37,1.03,2.31,2.11,2.63,8.87,2.51,17.96,6.77,23.29,14.62,2.14,4.94,3.4,10.34,3.74,15.72,.47,6.53-3.3,12.2-5.28,18.18,6.57,6.99,16.68,7.68,24.91,11.73,6.27,3.29,13.3,4.9,19.27,8.81,7.69,4.89,16.63,9.68,19.93,18.78,.85,4.59,1.46,10.78-2.9,13.85-4.62,1.88-8.14-2.73-12.36-3.6-12.4-2.99-24.91-6.41-36.05-12.8-3.36-1.88-6.23-4.58-9.86-5.94-4.19-1.76-8.58-5.24-13.32-3.27-4.67,3.78-9.67,7.1-14.61,10.49-4.81,4.28-10.57,8.11-17.22,8.27-1.63,.06-2.89-1.11-4.25-1.73-.64,.11-1.93,.32-2.57,.43-7.47-1.83-15.54-1.36-22.5-4.95-5.62-2.79-9.53-8.09-11.99-13.72-.49-1.14,.26-2.34,.4-3.47-.36-1.45-.65-2.89-.94-4.33-1.02-.51-2-1.01-2.95-1.51-1.85-3.24-4.76-5.8-6.14-9.32,7.41,4.52,13.59,12.42,22.97,12.6,9.19,.04,18.82,.81,27.52-2.79,4.36-1.6,7.06-5.62,10.34-8.68-1.2-1.43-2.17-3.14-3.87-3.97-5.72-2.62-10.32-7.04-15.05-11.06-2.38-1.69-5.54-2.11-7.43-4.47-3.31-3.94-9.33-2.63-13.06-5.91-2.25-1.99-4.1-4.38-6.3-6.41-3.54,2.29-5.85,5.95-9.32,8.29-2.42,1.44-3.73,3.99-5.09,6.33-.35,1.66-.75,3.32-1.28,4.92-1.18-6.55,4.85-10.55,7.95-15.43l-.76-1.71c2.65-3.03,6.94-6.02,5.93-10.63-.36-4.31-2.92-9.39,.02-13.26,3.82-2.86,8.38-.39,11.65,2.07,.13,.6,.4,1.8,.53,2.4,.57,.13,1.72,.37,2.29,.49,4.47,5.06,9.82,9.48,16.24,11.81-.5-6.06-2.09-12.42-.22-18.36,2.26-2.57,6.33-4.3,5.44-8.49-3.63,1.91-7.31,4.21-11.57,4.02-8.56,.73-15.75-4.69-22.48-9.15-2.7-1.63-3.37-6.71-.25-8.21,3.59-2.21,7.88-2.75,11.87-3.96,9.67-2.76,17.8-8.91,26.74-13.28,1.46-.8,3.2-1.53,3.92-3.2,2.84-5.18,3.3-11.2,4.69-16.85Zm4.39,82.57c-2.53,1.39-6.04,2.3-7.03,5.33,3.55,2.41,7.3,4.58,11.24,6.31,1.65,1.02,3.36-.46,4.4-1.69,2.08-2.82,1.92-6.5,2-9.83-3.36-1.48-7.31-1.97-10.61-.12Z"/>
    <path class="cls-6" d="M1662.49,75.25c.79-2.11,.91-4.75,2.91-6.17,3.88-.82,7.76,1.98,9.11,5.53,1.14,2.94,3.54,5.47,3.54,8.78,.25,3.97,.25,7.98-.25,11.93-.47,2.91-2.86,4.84-4.86,6.74-1.93,1.71-3.8,3.55-6.13,4.68-3.02,.96-6.27,.11-9.3,.9-3.62,.83-6.63,3.21-10.15,4.26-3.96,.37-7.96-.76-11.87,.17-5.78,1.27-11.22,3.8-17.05,4.84-8.44,1.07-16.58-2.71-25.03-1.78-6.24,.65-11.7-5.79-10.1-11.86,2.31-.7,4.77-.21,7.16-.35,4.77,.14,9.22-1.96,13.96-2.2,2.44-.17,4.58-1.56,7.01-1.91,5.72-.85,10.81-4.01,16.64-4.42,6.74-.52,11.72-5.54,17.5-8.4,3.84-.71,7.5-2.06,11.2-3.31,2.26-2.14,4.95-4.23,5.71-7.43Z"/>
    <path class="cls-6" d="M2196.56,73.55c3.63-3.27,8.53-1.92,12.92-2.63,4.45-.78,8.62,1.36,12.6,3.02,5.44,2.3,10.95,5.96,13.2,11.67,1.32,3.18,3.3,6.38,2.93,9.98-.37,3.09-1.86,5.92-2.24,9.01-1.46,6.74-.83,13.66-.97,20.49,5.69,.68,9.83-5.19,15.47-3.94,1.95,.33,3.93,.77,5.93,1.16,4.63,2.97,10.48,3.75,14.52,7.72,4.66,4.62,9.91,9.18,12.19,15.53,1.15,3.06,1.49,7.03-1,9.54-1.99,2.32-5.22,2.54-7.97,3.17-.85,.6-1.69,1.18-2.52,1.74-2.03-.6-3.93-2.32-6.13-1.53-7.66,1.89-15.09,5.26-23.17,4.66-3.71,2.35-7.31,4.89-10.48,7.92,1.41,2.06,2.68,4.25,3.59,6.6,3.58,5.08,9.06,8.18,13.78,12.07,7.58,5.96,15.14,12.1,23.87,16.35,3.49,1.92,7.57,1.98,11.36,3.03,11.57,2.4,22.66,6.6,33.87,10.3,4.78,2.5,10.36,5.02,12.82,10.15,1.63,2.87-.18,6-.48,8.97-.66,4.77-4.97,9.74-10.15,9.02-2.69-.24-5.36-.37-8.01-.44-4.56,.16-8.55-2.41-13.03-2.72-6.5-.47-11.71-4.77-17.86-6.37-3.69-1.18-6.69-3.68-9.93-5.67-10.34-5.47-20.8-10.84-30.37-17.6-6.6-4.36-12.93-9.22-20.02-12.74-1.81-.79-2.61,1.63-3.08,2.9-1.75,8.64-3.29,17.35-4.43,26.09-.93,5.39-3.57,10.26-4.85,15.55-1.3,3.76-1.71,7.94-4.1,11.23-2.06,3.23-4.29,6.76-8.2,7.86-5.42,2.81-11.42,4.6-17.54,4.52-5.87-1.07-11.8,.12-17.47,1.62-3.65-2.01-7.77-2.97-11.37-5.04-2.14-2.23-3.34-5.19-5.48-7.42-2.33-2.46-3.01-5.87-4.37-8.86-1.09-2.86-2.7-5.77-2.25-8.93,.68-6.79,1.55-13.58,2.1-20.38,1.24-2.81,.8-5.78-.46-8.49,5.4-.56,10.65,.99,15.56,3.12,5.93,2.9,12.57,.58,18.76,.07,4-2.32,6.19-6.97,6.69-11.46,.23-2.63,1.32-5.05,2.82-7.2,.61-5.11,2.39-10.14,1.43-15.34-8.31,1.52-16.56-1.94-23.07-6.88-1.76-1.19-2.44-3.22-3.12-5.1-2.67-2.93-6.25-5.36-7.43-9.32-1.76-5.14-7.32-8.59-6.87-14.5,5.46-.94,10.65,1.15,15.98,1.9,4.53,.73,7.81-3.13,11.83-4.45,2.87-.79,4.84-3.15,7.34-4.61,5.72-2.1,11.62-3.73,17.13-6.41,1.25-3.64,2.1-7.41,3.72-10.92,1.77-3.55,1.43-7.68,3.03-11.3,2.45-6.3,3.24-13.06,4.64-19.63,.25-1.7,.83-3.42,.58-5.15-2.38-5.52-8.51-7.59-12.24-11.93Z"/>
    <path class="cls-6" d="M890.43,76.61c2.13-2.77,6-2.9,9.07-1.88,5.65,1.02,8.78,7.53,7.6,12.84-1.34,7.02-7.08,11.98-9.82,18.37-.75,6.54-3.45,13.96,.5,19.97,1.08,2.83,.43,6.03-.04,8.93-3.65,4.14-8.27,7.63-10.73,12.7-1.53,7.36-2.08,14.91-2.41,22.41,4.9-2.53,9.66-5.43,14.92-7.18-2.01,1.69-4.19,3.16-6.29,4.73l-.12,2.44c-.88,1.26-1.7,2.55-2.49,3.85-1.96,1.16-4.98,1.42-5.88,3.77,.07,.74,.19,2.22,.25,2.96,.57-.42,1.7-1.26,2.26-1.67-1.84,2.74-1.51,5.79-.11,8.64-1.03,2.25-2.27,4.43-2.66,6.91-3.38,5.63-3.54,12.35-4.28,18.68-.67,12.16-.57,24.34-.28,36.5,.23,2.89-2.38,5.87-5.34,5.73-2.82,.04-5.69,.07-8.42-.61-2.95-1.82-4.77-4.92-5.79-8.16-1.54-4.54-4.93-9.22-2.95-14.17,1.88-4.58,1.63-9.61,.94-14.41-2.97,1.1-2.3-1.75-2.53-3.25-.9,1.19-1.63,2.48-2.2,3.86l-1.52-.55c.65,.45,1.32,.9,2,1.35-7.08,4.67-12.95,11.31-20.98,14.5-4.4,1.51-9.11,2.39-13.77,1.98-4.04-2.23-5.86-6.83-9.2-9.85-.76-4.07-1.94-8.19-1.22-12.36,3.91-1.9,6.16-5.88,8.32-9.48,2.77-5.01,7.9-7.97,11.53-12.27,3.49-4.05,7.29-7.83,11.67-10.92,1.33,.17,2.68,.33,4.03,.47,2.63-.15,5.26-.35,7.91-.46-.52,3.48-1.65,6.81-2.55,10.19,4.67-1.71,10.08-3.04,13.15-7.31,2.03-2.68,.95-6.26,.91-9.33,1.47-1.77,2.97-3.63,3.53-5.93,2.05-7.39,3.01-15.13,2.35-22.8-19.74,5.08-39.39,10.53-59.21,15.3-9.11,2.11-18.57,3.94-27.93,2.58-4.56-.73-7.8-4.5-10.16-8.18-1.87-2.61-1.87-6.14-1-9.11,.92-3.2,4.74-5.2,7.85-3.81,2.59,.82,4.18,3.12,5.79,5.15,2.47,.07,4.96,.26,7.36,.94,21.58-4.29,42.84-10.01,64.11-15.58,5.36-1.85,11.46-2.74,15.83-6.61,5.28-7.57,6.82-16.94,9.76-25.53,1.84-4.06,3.49-8.25,5.88-12.04,2.53-3.66-.38-8.66,2.36-12.3Zm.53,93.33-3.38,.85-30.78,41.08c-1.07-.14-2.68,1-1.99,2.15,1.2,1.17,4.01-1.44,1.99-2.15Z"/>
    <path class="cls-6" d="M1430.5,92.78c7.44,.5,14.95-3.56,22.23-.6,5.39,1.79,11.13,2.13,16.78,2.04,4.19,.29,7.48-4.6,11.7-2.52,4.52,1.75,9.81,3.04,12.65,7.36,2.56,3.79,5.19,8.76,3.02,13.32-1.73,3.76-5.61,5.8-9.28,7.24-4.54,1.7-6.63,6.54-10.6,9.05-3.53,2.12-5.76,5.78-9.21,7.99-2.5,1.39-5.74,2.3-7.11,5.02,2.76,5.7,8.22,9.48,11.02,15.16,10.88,1.61,21.92,1.02,32.88,.87,7.04-.13,11.77,5.96,15.7,10.99,3.14,3.26,.5,7.82,0,11.58-.39,3.87-4.69,4.82-7.83,5.35-4.94-.22-9-3.86-13.98-3.81-6.87-.23-13.73,.49-20.57,.95,.46,9.25-1.8,18.3-3.49,27.32-2.59,12.28-7.24,24.01-9.39,36.39-1.86,7.17-2.71,15.59-8.97,20.47-3.67,3.37-9.46,1.71-12.78-1.32-1.86-1.98-4.53-2.72-6.79-4.06-2.19-1.84-3.93-4.14-5.93-6.15-.8-3.97-2.87-7.57-6.2-9.93-1.6-3.04-4.59-5.15-5.53-8.54-1.14-3.45-3.25-6.99-2.27-10.73,1.78-6.21-1.43-12.27-3.81-17.83-1.06-1.66-.03-3.37,.49-5,.39-.17,1.17-.49,1.56-.65-.49,4.61,1.67,8.81,3.54,12.87,2.26,5.07,7.05,8.21,10.68,12.21,4.15,.95,8.29,2.12,12.58,2.36,8.63-6.68,10.81-17.87,13.41-27.84,1.33-6.71,3.85-13.38,2.98-20.33-7.39-2.08-14.23,2.56-21.51,2.82-8.4,.11-15.4,5.35-23.06,8.03-6.22,1.01-13.25,.77-18.12,5.46-5.46,.28-9.08-4.15-12.4-7.77,.45-4.95-1.35-9.63-3.01-14.18-1.22-3.31-1.79-7.59,.85-10.39,2.28-.76,4.7-.9,7.09-1.13,.32,2.09,.69,4.17,1.1,6.25,10.86,.78,21.72-1.17,32.1-4.22,8.88-6.13,20.36-3.53,29.95-7.74-3.74-4.79-10.5-7.23-12.18-13.56-.3-4.52,.08-9.4,2.58-13.3,2.57-3.36,7.34-3.67,10.26-6.65,4.22-4.15,7.23-9.36,10.57-14.21,.07-1.61-1.58-1.28-2.65-1.31-12.88,1.3-26.04,1.07-38.61,4.62-9.26,2.61-19.15,3.65-27.58,8.57-5.52,2.88-10.86,6.2-16.71,8.35-8.99,2.42-19.04-1.37-24.64-8.68-2.06-2.8-2.87-6.26-3.91-9.51,.99-3.75,3.03-8.27,7.39-8.82,2.04,1.48,3.45,3.61,5.03,5.54,5.58-.16,10.61-2.77,15.94-4.14,3.89-.9,7.43-2.83,11.2-4.13,9.94-3.53,20.41-5.15,30.67-7.51,3.99-.9,8.03-1.78,12.17-1.62Z"/>
    <path class="cls-6" d="M232.55,124.7c14.2-7.05,30.35-10.59,46.16-8.36,7.5,1.26,14.86,5.41,18.41,12.36,5.94,11.23,5.22,24.65,1.71,36.52-3.29,11.82-8.73,22.87-14.47,33.66-24.37,.14-48.74-.04-73.11-.09,2.15-5.97,5.92-12.45,3.66-18.9-2.07-4.64-8.14-4.27-12.32-3.47-12.62,2.87-21.56,13.02-29.44,22.55-8.72,.3-17.46-.04-26.19-.01,7.51-9.75,15.96-18.73,24.1-27.95,17.34-19.11,38.32-34.94,61.49-46.31Z"/>
    <path class="cls-6" d="M2480.57,152.42c5.69-.43,9.1-6.48,14.91-6.44,7.99-.7,15.17,4.35,20.32,9.98,1.21,5.37,0,11.25-3.07,15.81-2.26,3.31-2.43,7.72-5.32,10.62-1.77,1.94-4.63,3.81-3.66,6.87,5.9,2.29,12.27-1.37,18.4-.34,5.42,1.15,10.86,2.53,15.77,5.2,2.57,1.62,6.27,1.18,8.18,3.87,1.9,2.33,.87,5.57-.02,8.11-1.28,2.85,2.86,5.13,1.46,8.18-.91,6.14-8.3,6.05-13.03,5.41-7.62-.08-15.22-1-22.76-1.94-1.71,.98-3.11,2.36-4.6,3.59,.14,15.38-.56,30.85-3.07,46.05-.65,10-1.94,20.51-7.73,29-2.67,3.59-5.2,8.23-9.82,9.42-2.59,1.04-4.73-1.22-7.15-1.62-4.79-.71-8.9-3.31-13.25-5.2-3.74-1.65-7.75-2.56-11.49-4.17-2.65-5.05-7.27-8.52-11.6-12.02,.81,.33,2.42,.99,3.22,1.33,.63-3.31-1.57-5.44-3.94-7.23-1.32-2.66-3.02-5.09-4.51-7.64-1.78-5.89-1.6-12.15-2.16-18.23,.88-.77,1.82-1.55,2.76-2.33,1.81,3.61,2.8,8.45,7.25,9.7,.05-1.12,.14-3.35,.18-4.47,1.12,2.39,1.57,5.54,4.19,6.83,7.73,4.04,16.37,5.85,24.83,7.77,5.19,1.42,8.86-4.06,10.34-8.3,2.31-12.68,3.12-25.63,2.78-38.51-7.09,3.51-13.86,7.86-21.55,9.93-5.26,1.87-10.51,3.82-15.89,5.31-3.96,.92-8.39-.12-11.14-3.2-2.66-2.83-4.58-6.25-7.24-9.07-3.67-3.76-4.69-9.28-4.95-14.33,.74-3.47,4.12-5.36,6.74-7.38,5.15-1.56,9.86,1.98,14.56,3.58,7.6,.28,15.21-2.05,21.52-6.32,3.09-.42,6.02-1.58,8.95-2.69,.59-4.95-3.71-9.23-2.13-14.14,.36-1.98,.88-3.92,1.38-5.88,4-1.54,5.96-5.61,8.97-8.42,1.45-1.22,1.94-3.01,2.07-4.86-4.01,.56-8.33,.07-11.98,2.06-4.1,2.12-8.61,3.79-11.75,7.32-3.12,3.38-7.51,5.07-11.11,7.82-5.25,3.77-12.61,5.98-18.68,2.91-3.64-1.86-7.54-4.68-8.2-8.99-.65-2.82-.14-5.7,.44-8.48,4-1.17,7.15,1.56,10.44,3.32,8.14-2.02,13.95-8.71,21.54-11.99,6.38-3.4,13.46-4.99,20.6-5.8Z"/>
    <path class="cls-6" d="M531.09,349.86c2.49-7.42,9.41-13.2,17.27-13.87,4.64-.37,9.36-.43,13.96,.35,6.32,1.28,11.37,6.87,12.16,13.25-4.35,.65-8.66,1.53-12.96,2.39-1.32-1.98-2.53-4.47-5.03-5.11-4.95-2-10.98,1.32-12.21,6.46-1.53,5.87-1.55,12.57,1.44,17.98,4.01,5.73,12.3,4.18,17.35,.76-.01-1.11-.04-3.32-.05-4.43-3.05,0-6.09,0-9.12,.03-.13-3.5-.12-6.99-.01-10.47,7.08,.03,14.17,.03,21.26,0,.02,6.97,.35,13.98-.12,20.93-5.52,4.53-12.42,7.47-19.6,7.72-7.22,.41-15.36-1.1-20.24-6.91-6.45-8.04-7.36-19.53-4.1-29.08Z"/>
    <path class="cls-6" d="M1146.13,339.18c3.28-2.39,7.37-3.38,11.39-3.39,5.69-.21,12.15-.05,16.55,4.11,2.95,2.53,3.9,6.44,4.57,10.1-4.34,.35-8.66,.88-13.01,.96-.77-3.37-3.25-6.8-7.14-6.14-3.45-.56-5.43,2.74-4.41,5.78,7.25,2.87,15.78,3.17,21.89,8.48,7.09,6.7,4.56,19.68-3.85,24.12-7.1,3.61-15.74,3.39-23.18,.97-6.35-2.16-9.13-9-10.06-15.12,4.4-.33,8.79-.86,13.2-1.07,.9,3.3,2.4,7.49,6.31,8.06,3.19,.82,8.11-.54,7.94-4.57,.43-2.84-2.27-4.48-4.58-5.18-6.03-1.94-12.87-2.9-17.52-7.59-5.41-5.31-4.19-15.24,1.9-19.52Z"/>
    <path class="cls-6" d="M1376.03,336.29c8.03-1.37,17.36-.68,23.44,5.38,6.59,6.71,7.42,16.98,6,25.82-1.04,7.09-5.56,13.81-12.32,16.55-6.75,2.61-14.48,2.43-21.21-.14-6.39-2.57-10.68-8.86-11.96-15.47-1.61-7.54-1.07-15.84,2.78-22.64,2.84-4.85,7.78-8.31,13.27-9.5Zm4.39,10.95c-3.07,.74-5.53,3.28-6.3,6.32-1.45,5.42-1.49,11.45,.85,16.63,2.92,5.92,13.28,5.77,15.61-.59,1.79-4.79,1.78-10.16,.83-15.13-.85-4.96-6.05-8.55-10.99-7.23Z"/>
    <path class="cls-6" d="M1652.55,341.52c6.21-6.21,15.88-6.72,24.01-4.95,6.72,1.67,11.19,7.77,12.96,14.19-4.04,1-8.05,2.1-12.16,2.72-1.41-3.21-3.94-6.73-7.87-6.53-4.44-.48-8.11,3.4-8.83,7.52-1.03,5-.91,10.35,.66,15.23,2.07,6.19,12.36,6.48,14.74,.42,.68-1.48,1.12-3.07,1.65-4.62,4.26,.78,8.33,2.33,12.42,3.74-1.5,4.88-3.5,10.03-7.84,13.08-6.23,4.45-14.61,4.23-21.73,2.44-7.98-2.3-13.1-10.32-14.12-18.25-1.21-8.59-.22-18.49,6.11-24.99Z"/>
    <path class="cls-6" d="M1817.15,336.49c7.52-1.48,16.15-1.23,22.46,3.65,5.94,4.48,8.29,12.23,8.37,19.4,.16,7.33-1.36,15.39-6.94,20.59-6.5,6.27-16.62,6.82-24.93,4.56-6.71-1.78-11.77-7.54-13.65-14.08-2.02-7.15-1.91-14.99,.8-21.95,2.37-5.95,7.66-10.62,13.89-12.17Zm2.82,11.75c-3.55,2.09-4.5,6.47-4.81,10.26-.21,4.34-.06,9.11,2.47,12.83,2.44,3.43,7.29,3.61,10.99,2.44,3.56-1.58,4.68-5.65,5.16-9.19,.32-4.53,.51-9.46-1.83-13.53-2.4-3.97-8.07-5.22-11.98-2.81Z"/>
    <path class="cls-6" d="M1859.88,336.33c4.24,.01,8.49,.02,12.75,0,5.85,8.59,10.8,17.8,17.05,26.11,.32-8.6,.06-17.22,.15-25.82,4.35-.41,8.72-.28,13.1-.28,.12,16.21,.01,32.43,.05,48.65-4.37-.04-8.74,.25-13.08-.1-5.98-8.38-10.91-17.5-16.86-25.91-.24,8.67-.06,17.34-.1,26.02-4.39,.04-8.76,.03-13.13,.02,.03-16.23-.1-32.46,.07-48.69Z"/>
    <path class="cls-6" d="M1949.36,342.35c6.04-6.98,16.35-7.67,24.8-5.74,6.74,1.66,10.93,7.84,12.98,14.09-4.09,1.05-8.18,2.2-12.36,2.74-1.32-3.47-4.21-6.89-8.3-6.5-5.11-.25-8.52,4.88-8.63,9.54-.17,4.93-.77,10.36,1.79,14.82,2.07,3.5,6.79,3.56,10.28,2.59,3.31-1.54,4.11-5.35,5.51-8.36,4.15,.71,8.05,2.36,12.05,3.66-1.32,6.07-4.7,12.11-10.54,14.8-5.94,2.6-12.81,2.38-18.97,.73-8.28-2.36-13.44-10.93-14.1-19.16-.68-7.99-.28-17.01,5.49-23.21Z"/>
    <path class="cls-6" d="M2141.73,340.59c6.07-5.27,14.74-5.54,22.28-4.22,6.98,1.48,11.95,7.69,13.58,14.4-4.02,1.01-8.03,2.09-12.12,2.69-1.3-2.96-3.38-6.2-6.92-6.45-4.11-.78-8.13,2.08-9.3,5.95-1.64,5.43-1.44,11.36,.23,16.76,2.03,6.11,12.31,6.5,14.65,.45,.64-1.47,1.14-3.01,1.82-4.47,4.29,.26,8.22,2.33,12.31,3.53-1.5,5.46-4.09,11.12-9.23,14.02-6.26,3.47-13.96,3.22-20.68,1.39-8.16-2.51-13.07-10.94-13.88-19.07-1.09-8.73,.28-18.9,7.26-24.98Z"/>
    <path class="cls-6" d="M2318,336.22c7.32-1.09,15.62-.75,21.6,4.17,7.31,5.9,8.99,16.27,7.76,25.1-.56,6.25-3.32,12.57-8.52,16.3-6.77,4.76-15.83,5-23.54,2.74-7.58-2.26-12.7-9.56-13.93-17.14-1.08-7.56-.75-15.87,3.56-22.45,2.88-4.58,7.81-7.63,13.07-8.72Zm-1.43,15.31c-2.37,5.47-2.22,11.96-.45,17.58,1.15,3.66,4.93,5.19,8.4,5.81,2.83-.84,6.25-1.74,7.48-4.8,2.21-6,2.55-13.09-.23-18.96-3.15-5.63-12.31-5.39-15.2,.37Z"/>
    <path class="cls-6" d="M2419.11,336.4c7.97-1.47,17.36-.99,23.53,4.96,5.3,4.79,6.94,12.25,7.08,19.12-.18,6.93-1.58,14.42-6.75,19.46-6.48,6.32-16.56,7.06-24.93,4.82-7.91-1.98-13.41-9.41-14.68-17.23-.94-6.67-.91-13.84,2.09-20.03,2.48-5.6,7.75-9.66,13.66-11.1Zm2.77,11.73c-3.67,2.02-4.88,6.45-4.97,10.36-.13,4.2-.25,8.81,2.15,12.48,2.84,4.25,9.47,4.8,13.2,1.42,2.2-1.97,2.72-5.07,3.1-7.85,.65-4.01,.33-8.2-.99-12.04-1.69-4.87-8.15-6.95-12.49-4.37Z"/>
    <path class="cls-6" d="M2470.57,338.58c5.35-3.25,11.86-2.93,17.89-2.73,4.11,.1,8.32,1.37,11.41,4.2,2.62,2.45,3.91,5.89,5.31,9.12-4.42,1.24-8.97,1.9-13.45,2.79-1.23-1.94-2.32-4.32-4.71-5-4.24-1.82-9.71,.21-11.67,4.39-2.04,4.07-1.68,8.79-1.46,13.2,.07,4.18,2.33,8.6,6.45,10.05,4.3,1.31,9.06,.13,12.66-2.45,.23-1.55,.2-3.13,.31-4.7-3.13-.12-6.23-.15-9.32-.16-.01-3.36-.01-6.72,.05-10.08,7.07,0,14.15,.05,21.24-.03,.92,6.83,.21,13.74,.49,20.6-5.02,3.97-10.86,7.15-17.31,7.8-7.46,.87-16.04,.16-21.69-5.34-5.54-5.3-7.45-13.31-7.05-20.75-.12-8.12,3.52-16.81,10.85-20.91Z"/>
    <path class="cls-6" d="M587.92,336.33c4.65-.02,9.32-.09,13.95,.41,.07,10.6-.29,21.21,.18,31.8,.68,6.31,10.11,7.98,13.56,3.08,1.15-1.44,1.46-3.31,1.48-5.11,.16-9.94-.19-19.89,.15-29.82,4.58-.68,9.24-.38,13.85-.1,0,9.94,.04,19.87-.01,29.81,.02,6.81-3.28,13.87-9.4,17.23-6.58,3.13-14.26,2.66-21.21,1.17-7.64-1.86-12.31-9.77-12.52-17.29-.19-10.39-.1-20.79-.03-31.18Z"/>
    <path class="cls-6" d="M645.19,336.65c4.6-.6,9.27-.36,13.89-.03,0,16.13,.01,32.27,0,48.41-4.68,0-9.35,.01-14.03-.02,.1-16.12-.18-32.25,.14-48.36Z"/>
    <path class="cls-6" d="M673.2,336.66c4.63-.49,9.31-.37,13.97-.21,.08,12.18,.02,24.36,.04,36.54,7.28,.06,14.56,.02,21.84,.02v12.01c-11.95-.01-23.91,.06-35.86-.04,.02-16.11,0-32.21,0-48.32Z"/>
    <path class="cls-6" d="M720.05,336.72c4.66-.53,9.37-.52,14.05-.15,.02,16.15,.04,32.31,0,48.46-4.67,0-9.34,.01-14.01-.02-.02-16.1,.04-32.19-.03-48.29Z"/>
    <path class="cls-6" d="M748.26,336.81c4.4-.24,9.35-1.41,13.48,.31,5.74,8.38,10.86,17.2,16.49,25.67,.17-8.65,.1-17.31,.05-25.96,4.47-.68,9.03-.7,13.52-.04-.09,16.06-.04,32.12-.03,48.18-4.46,.08-8.92,.07-13.37,.02-5.48-8.78-11.1-17.47-16.6-26.23-.2,8.74-.05,17.48-.09,26.22-4.47,.07-8.95,.07-13.42,.01-.02-16.06,.06-32.12-.03-48.18Z"/>
    <path class="cls-6" d="M842.97,336.62c4.63-.43,9.3-.27,13.95-.28,.13,10.03-.03,20.05,.07,30.08-.07,2.77,1.15,5.62,3.57,7.12,4.38,2.29,11.27,.23,11.53-5.35,.32-10.46,.09-20.95,.1-31.42,4.64-.62,9.33-.54,14-.24,.02,10,.05,19.99,0,29.99,.11,7.04-3.58,14.3-10.03,17.46-6.65,2.76-14.18,2.27-21.05,.71-7.47-2.15-11.78-9.94-12.05-17.35-.22-10.24,0-20.48-.09-30.72Z"/>
    <path class="cls-6" d="M899.86,336.6c3.9-.28,7.84-.48,11.75-.13,1.05,.11,1.82,.66,2.3,1.63,5.3,8.25,10.34,16.67,15.86,24.78,.23-8.77,.03-17.54,.11-26.31,4.37-.36,8.78-.36,13.16,.06-.04,16.13-.01,32.26-.02,48.39-4.37-.09-8.75,.24-13.1-.15-5.93-8.4-10.87-17.49-16.83-25.88-.24,8.67-.05,17.35-.11,26.02-4.38,.03-8.76,.01-13.13,.01,0-16.14,0-32.28,.01-48.42Z"/>
    <path class="cls-6" d="M956.99,336.65c4.67-.47,9.38-.44,14.05,.01-.03,16.12,0,32.24-.01,48.36-4.68,0-9.36,0-14.03,0-.01-16.12,.01-32.25-.01-48.37Z"/>
    <path class="cls-6" d="M980.76,336.73c4.58-.42,9.21-.63,13.81-.25,1.31,.45,1.27,2.14,1.8,3.23,3.02,10.36,5.9,20.76,9.11,31.07,3.62-11.23,6.69-22.64,9.85-34,4.7-.67,9.46-.43,14.2-.41-5.09,16.36-11.08,32.44-16.59,48.67-5-.12-10.01,.2-15-.14-6.07-15.91-11.29-32.17-17.18-48.17Z"/>
    <path class="cls-6" d="M1038.41,337.31c.24-.22,.72-.65,.97-.86,12.16-.27,24.34-.03,36.51-.11,.04,3.52,.04,7.04,.03,10.57-7.76,.01-15.52,.02-23.28-.01-.36,2.6-.21,5.22,.19,7.81,7.1-.08,14.21-.03,21.32-.03,0,3.22,0,6.44,0,9.66-7.2-.1-14.38,.45-21.57,.34-.34,3.11-.19,6.25,.17,9.35,7.91-.09,15.83-.03,23.76-.03,.24,3.64,.19,7.3,.2,10.96-12.74,.15-25.47,.04-38.21,.06-.36-15.9-.2-31.82-.09-47.71Z"/>
    <path class="cls-6" d="M1088.26,336.8c7.38-.88,14.83-.35,22.25-.42,5.13,.49,11.28-.25,15.14,3.95,7.01,7.14,3.39,21.35-6.87,23.19,2.96,1.44,5.4,3.77,6.93,6.7,2.56,4.81,4.85,9.77,7.01,14.78-5.21,.05-10.42,.02-15.62,.03-2.92-5.48-5.41-11.18-8.48-16.57-1.03-2.27-3.56-2.88-5.65-3.67-1.27,6.71-.03,13.5-.61,20.24-4.64,0-9.29,.01-13.92-.02-.33-16.07,0-32.14-.18-48.21Zm14.04,19.23c3.91,.2,7.88,.12,11.64-1.13,.98-2.32,2.15-5.71-.4-7.47-3.26-1.82-7.19-1.04-10.74-1.25-.38,3.27-.54,6.56-.5,9.85Z"/>
    <path class="cls-6" d="M1191.94,336.34c4.64,0,9.29-.01,13.94,.03,.07,16.21,.01,32.42,.03,48.63-4.68,.04-9.36,.03-14.03,.02,.03-16.23-.09-32.46,.06-48.68Z"/>
    <path class="cls-6" d="M1216.92,336.48c14.08-.3,28.17-.09,42.26-.11,.07,3.97,.05,7.95,.07,11.93-4.74,.52-9.49-.01-14.22,.44,.1,12.09,.02,24.19,.04,36.28-4.67,0-9.34,.02-14.01-.02,.02-12.11-.02-24.21,.02-36.32-4.72-.65-9.46,.22-14.17-.25-.02-3.99-.03-7.97,.01-11.95Z"/>
    <path class="cls-6" d="M1265.41,336.69c4.7-.42,9.45-.56,14.17-.22,1.4,0,1.94,1.33,2.56,2.36,2.55,4.55,4.9,9.22,7.66,13.65,2.9-4.1,4.96-8.71,7.48-13.05,.77-1.24,1.31-3.06,3.12-2.97,4.61-.32,9.26-.17,13.89,.18-5.39,8.84-10.93,17.59-16.4,26.37-1.2,1.58-.98,3.62-1.01,5.48,.03,5.51,.02,11.01,.03,16.51-4.68,.04-9.37,.03-14.04,.02-.05-6.19,.06-12.39-.02-18.58,.11-1.69-.91-3.11-1.7-4.49-5.28-8.4-10.58-16.79-15.74-25.26Z"/>
    <path class="cls-6" d="M1417.85,336.54c11.43-.43,22.88-.12,34.33-.16,.05,3.53,.04,7.06,0,10.6-6.77-.03-13.53,0-20.29-.02-.02,2.76-.02,5.52-.02,8.29,5.76,.02,11.52,.02,17.29,0,.06,3.3,.07,6.6,.07,9.91-5.78,0-11.56,0-17.32-.01-.07,6.62-.04,13.24-.03,19.86-4.69,.02-9.38,.02-14.06,.02,.01-16.17-.04-32.33,.03-48.49Z"/>
    <path class="cls-6" d="M1501.89,336.5c12.41-.33,24.83-.13,37.25-.11,.05,3.51,.05,7.03,0,10.54-7.75-.03-15.49,0-23.23-.02-.03,2.48-.03,4.95-.03,7.43,7.16,.75,14.38-.01,21.57,.47,.43,3.12,.22,6.29,.23,9.43-7.27,.76-14.55-.15-21.81,.45,.01,3.1,.02,6.2,.05,9.31,8.01-.02,16.02-.03,24.04,.01,0,3.66,0,7.33,.01,11-12.7,.04-25.4,0-38.1,.02,0-16.18-.03-32.35,.02-48.53Z"/>
    <path class="cls-6" d="M1551.73,336.62c4.66-.43,9.38-.46,14.03,.19-.08,12.07-.02,24.14-.03,36.21,7.18,0,14.37-.03,21.56,.03-.02,3.99-.01,7.98-.02,11.98-11.85,0-23.7,0-35.54,0-.02-16.14-.02-32.27,0-48.41Z"/>
    <path class="cls-6" d="M1597.91,336.57c12.4-.48,24.84-.18,37.26-.16,.05,3.49,.04,6.98,.05,10.48-7.77,.06-15.53,0-23.29,.03-.02,2.49-.02,4.98,0,7.47,7.25,.62,14.55,.03,21.83,.41-.04,3.16-.04,6.32-.04,9.48-7.27,.25-14.55-.26-21.8,.37-.01,3.11,0,6.22,.01,9.34,8.01,0,16.03-.01,24.05,.01,.01,3.67,.01,7.34,.02,11.02-12.7,0-25.4,0-38.1,0,0-16.15,0-32.3,.01-48.45Z"/>
    <path class="cls-6" d="M1697.83,336.59c14.09-.43,28.22-.36,42.32-.04,.02,3.95,.02,7.91,0,11.86-4.72,.38-9.44,.22-14.15,.25-.01,12.12-.01,24.24,0,36.36-4.68,0-9.35,0-14.01,0-.12-12.17,.21-24.36-.16-36.53-4.67-.3-9.35,.56-14-.1-.03-3.94-.03-7.87,0-11.8Z"/>
    <path class="cls-6" d="M1750.92,336.56c10.52-.23,21.16-.8,31.62,.68,8.78,1.73,11.51,13.34,7.18,20.29-1.69,3.2-5.06,4.82-8.29,6.01,8,4.32,9.66,14.13,13.9,21.44-5.31,.07-10.61,.08-15.9,0-2.68-5.42-5.3-10.88-8.17-16.2-1.06-2.19-3.77-4.3-6.2-3.17-.27,6.46-.02,12.94-.1,19.41-4.69,.02-9.37,.01-14.04,.02-.02-16.16-.03-32.31,0-48.47Zm14.08,9.65c-.06,3.3-.06,6.59-.04,9.89,3.58-.19,7.54,.58,10.84-1.24,2.41-1.78,2.49-5.83,.03-7.6-3.4-1.58-7.24-.92-10.83-1.05Z"/>
    <path class="cls-6" d="M1916.94,336.65c4.65-.44,9.32-.3,14-.31,.11,16.22,0,32.44,.05,48.66-4.69,.04-9.37,.03-14.04,.02,0-16.12,.01-32.24,0-48.37Z"/>
    <path class="cls-6" d="M2033.07,336.67c14.19-.51,28.45-.62,42.63,.08-.02,3.8-.03,7.61,.04,11.42-4.81,.66-9.66,.48-14.48,.53-.05,12.11,.04,24.23-.05,36.34-4.67-.02-9.33,.01-13.98-.05,.01-12.11,0-24.22,.01-36.33-4.73,.03-9.47,.07-14.17-.39,0-3.87-.01-7.73,0-11.6Z"/>
    <path class="cls-6" d="M2086.06,336.33c12.4,.03,24.8-.01,37.21,.02,.06,3.52,.06,7.04,.04,10.56-7.76,.02-15.51,0-23.26,.01-.02,2.46-.03,4.93-.03,7.4,7.25,.71,14.55,.15,21.83,.41-.03,3.16-.04,6.32,.01,9.49-7.27,1.01-14.58-.21-21.84,.48,.01,3.1,.01,6.19,.03,9.29h24.05c-.01,3.68-.01,7.36,0,11.04-12.7-.02-25.4,.02-38.09-.02,.03-16.23-.07-32.45,.05-48.68Z"/>
    <path class="cls-6" d="M2189.22,336.69c4.56-.69,9.21-.23,13.83-.35,.1,5.64,.05,11.29,.05,16.94,5.04,.06,10.09,.03,15.14,.04-.02-5.52,.03-11.03-.04-16.55,4.65-.63,9.35-.44,14.04-.4,.12,16.22,.03,32.44,.04,48.66-4.69,0-9.37,.03-14.04-.07-.03-6.56,.09-13.13-.09-19.7-5.02,.05-10.02,.02-15.01,.03-.07,6.58,0,13.16-.05,19.74-4.67,0-9.34,.01-13.99-.03,.08-16.1-.17-32.21,.12-48.31Z"/>
    <path class="cls-6" d="M2246,336.34c3.87,.06,7.76-.18,11.65,.1,1.34-.05,2.04,1.18,2.72,2.16,5.17,8.08,10.12,16.31,15.5,24.25,.23-8.76,.01-17.52,.13-26.29,4.36-.37,8.76-.28,13.14,.15-.04,16.1,.02,32.21-.03,48.32-4.46,0-8.9,.06-13.34-.1-5.37-8.74-10.75-17.49-16.56-25.94-.3,8.67-.05,17.36-.15,26.04-4.38,0-8.75,0-13.11,0,.02-16.23-.07-32.45,.05-48.68Z"/>
    <path class="cls-6" d="M2359.2,336.77c4.63-.61,9.32-.45,14-.39,.1,12.19,.03,24.39,.04,36.58,7.27,.12,14.55,.03,21.83,.05,.03,4.01,.02,8.01,.03,12.02-11.97-.04-23.92,.07-35.87-.06,0-16.07,.04-32.13-.03-48.2Z"/>
    <path class="cls-6" d="M2513.6,336.71c4.66-.44,9.37-.58,14.06-.25,1.72-.04,2.24,1.73,3.04,2.93,2.41,4.4,4.8,8.82,7.3,13.18,3.23-4.78,5.65-10.05,8.63-14.98,1.19-1.98,3.96-.97,5.91-1.3,3.3,.07,6.61,.04,9.95,.08-5.44,9.59-11.51,18.83-17.36,28.17-.09,6.83-.02,13.66-.04,20.48-4.69,0-9.38,.02-14.04-.02-.01-5.51-.02-11.02,.03-16.52-.1-1.82,.17-3.83-.98-5.37-5.51-8.8-11-17.6-16.5-26.4Z"/>
  </g>
  <g>
    <path class="cls-18" d="M303.82,58.47c-4.29-3.41-10.87-4.09-13.05-9.78,3.61,3.42,8.37,5.03,12.67,7.35,4.65,2.81,8.79-4.18,13.75-1.99l1.68,3.08c-2.62-.05-5.24-.08-7.86,.12,.25,.75,.76,2.25,1.01,3-2.96-.11-6.29-.49-8.41,2.1,.32,.56,.95,1.67,1.27,2.23-.41,1.07-.8,2.14-1.19,3.22-2.26-.47-4.74-1.13-6.71,.49-3.94,3.27-7.47,7.03-10.93,10.8-.71,.91-1.92,1.07-2.9,1.55-1.67-3.62-.18-7.25,.99-10.74-.76-1.37-1.37-2.82-1.87-4.31,1.35-.72,2.69-1.45,4.05-2.16,3.78,.66,7.51-.45,11.26-.75,2.69-.21,4.46-2.47,6.24-4.21Zm-17.92,10.88c-.63,2.1-.98,4.26-1.12,6.44,3.93-1.89,6.93-5.25,9.4-8.76-2.82,.56-5.57,1.39-8.28,2.32Z"/>
    <path class="cls-18" d="M146.55,357.87c1.35,.54,2.71,1.07,4.08,1.59,.18,1.67,.37,3.35,.56,5.02,1.39-.96,2.65-2.16,4.24-2.77,1.32,.22,2.62,.5,3.92,.85-2.24,2.38-5.14,4-7.39,6.36-.96,1.63-1.58,3.43-2.31,5.17-1.17-.5-2.34-.99-3.52-1.48,.63-1.77,1.38-3.5,1.78-5.34-.08-3.17-1.05-6.25-1.36-9.4Z"/>
    <path class="cls-18" d="M209.1,371.33c.98-.01,2.95-.03,3.93-.04,.08,3.47,.09,6.94,.14,10.41,1.98,.29,3.95,.64,5.89,1.19-.22,.33-.67,1-.89,1.33-2.78,1.33-6.05,.7-9.04,1.03,.03-4.64-.06-9.28-.03-13.92Z"/>
  </g>
  <g>
    <path class="cls-20" d="M197.16,73.53c28.52-2.65,57.84,4.04,82.33,18.9,23.01,13.79,41.71,34.57,53.05,58.87,13.46,28.49,16.33,61.75,8.25,92.17-7.19,27.63-23.55,52.68-45.7,70.64-21.34,17.41-48.12,28.17-75.63,29.99-21.78,1.7-43.98-2.02-64.03-10.73-28.68-12.37-52.8-34.96-66.98-62.78-18.14-34.88-19.73-77.79-4.51-114,12.03-29.04,34.51-53.59,62.4-68.09,15.72-8.32,33.12-13.39,50.82-14.97Zm-4.15,6.79c-23.9,3.03-46.88,12.87-65.5,28.17-23.91,19.36-40.52,47.55-45.69,77.89-4.66,26.3-.93,54.04,10.66,78.12,12.8,26.88,35.19,49.04,62.18,61.58,25.62,12.05,55.25,15.18,82.87,9.05,30.03-6.53,57.33-24.33,75.68-48.95,16.53-21.9,25.66-49.23,25.76-76.66,.23-27.35-8.54-54.7-24.71-76.77-17.9-24.82-44.91-42.89-74.71-49.91-15.21-3.56-31.03-4.55-46.54-2.52Z"/>
    <path class="cls-20" d="M139.94,116.08c12.34-2.24,25.22,.31,36.69,5.07-2.33,1.67-4.65,3.35-6.99,5.01-10.54-4.92-22.4-7.58-34.01-5.96-7.43,1.85-12.66,8.88-13.71,16.27-1.23,5.69-.28,11.54,.96,17.15,4.08,16.7,13.19,31.65,23.5,45.2-1.5,3.57-4.06,6.56-6.35,9.64-8.67-14.5-17.53-29.36-21.11-46.08-2.51-10.46-3.44-22,1.15-32.04,3.57-7.85,11.56-12.82,19.87-14.26Z"/>
  </g>
  <path class="cls-21" d="M263.7,365.83c1.06,0,2.13,.01,3.2,.02-.01,.52-.02,1.56-.03,2.08-1.07,.18-2.14,.37-3.2,.56,0-.67,.02-1.99,.03-2.66Z"/>
  <g>
    <path class="cls-22" d="M186.14,126.53c4.04-.99,8.46,2.76,7.98,6.97,.15,5.38-7.39,8.68-11.16,4.69-4.23-3.27-2.19-11,3.18-11.66Z"/>
    <path class="cls-22" d="M153.96,208.89c14.88-.07,29.75-.22,44.63-.11,2.65-.26,4.77,1.33,6.64,2.98,2.78-1.73,5.89-3.19,9.25-2.99,21.14,.1,42.28-.03,63.42,.07-3.56,5.5-7.47,10.75-11.23,16.1-33.35-.03-66.7,.09-100.04-.04-4.11-5.43-8.74-10.45-12.67-16.01Z"/>
    <path class="cls-22" d="M139.7,209.55c1.56-.02,2.26,1.49,3.13,2.52,3.14,4.31,6.35,8.57,9.56,12.83-7.24,.1-14.48,.08-21.71,.02,3.06-5.09,5.81-10.37,9.02-15.37Z"/>
    <path class="cls-22" d="M120.38,250.21c1.44-5.48,3.32-10.85,5.74-15.98,9.8,.08,19.61,.1,29.42,.08,2.19,.04,4.8-.1,6.32,1.8,4.66,4.66,9.35,9.3,13.93,14.04-18.47,.18-36.94,.07-55.41,.06Z"/>
    <path class="cls-22" d="M175.95,234.64c4.18-.5,8.4-.64,12.62-.67,.29,1.18,.59,2.37,.89,3.56,3.81-1.77,7.82-3.4,12.11-3.34,18.81,.19,37.64-.06,56.45,.14-3.74,4.78-8.19,8.95-12.11,13.59-1.2,1.22-2.44,2.87-4.37,2.73-16.38,.12-32.77,.05-49.16,.13-5.58-5.27-11.29-10.43-16.43-16.14Z"/>
    <path class="cls-22" d="M165.92,263.33c5.98-4.2,13.67-3.33,20.51-2.86,7.2,4.9,13.86,10.58,20.89,15.75-29.92,.11-59.86,.24-89.77-.06-.83-5.32-.56-10.81,.44-16.09,13.19,.07,26.37,.09,39.56,.11,3.1-.1,6.11,1.03,8.37,3.15Z"/>
    <path class="cls-22" d="M203.15,260.27c9.81-.12,19.62-.15,29.43,0-4.9,4.25-10.07,8.18-15.15,12.21-4.77-4.06-9.74-7.9-14.28-12.22Z"/>
    <path class="cls-22" d="M120.28,285.99c25.21-.01,50.44-.3,75.64,.14-12.45,7.4-26.03,13.5-40.5,15.45-7.65,1.05-15.51-.27-22.66-3.09-5.63-2.24-10.79-6.48-12.48-12.5Z"/>
  </g>
  <g>
    <path class="cls-4" d="M356.2,149.68c7.39-.99,14.75-2.34,22.2-2.81-.18,.95-.35,1.9-.52,2.86-1.52,.49-3.04,.99-4.55,1.5,2.52,2.73,5.26,5.27,8.23,7.52,4.28,.96,8.48,2.46,12.9,2.61,.21-.51,.63-1.52,.84-2.03-1.26-.36-2.51-.73-3.76-1.09-1.2,.33-2.39,.66-3.59,.96-.06-2.13,.51-4.16,1.24-6.13-2.19,0-4.36,.08-6.54,.13-.48-3.02,1.85-4.42,4.22-5.47,.02,1.2,.03,2.41,.05,3.62,1.38,.76,2.76,1.56,4.12,2.37,.07,.72,.22,2.14,.3,2.86,2.48,1.19,6.27,2.42,5.99,5.85,.16,1.72-1.48,2.62-2.48,3.7-1.41-.15-2.82-.31-4.22-.46-1.61-.77-3.24-1.46-4.9-2.08,.83,4.76,4.66,9.7,2.06,14.45-.87,1.85-2.55,3.07-4.14,4.25-1.6-2-3.24-3.98-4.98-5.86,.59-.92,1.19-1.84,1.78-2.76,.89,.09,2.68,.25,3.57,.34,1.69-3.39-.16-7-2.26-9.72-3.73-4.78-8.52-8.58-12.37-13.25-5.2,1.03-10.35,2.37-15.62,3.07,.53-1.51,.16-4.37,2.43-4.43Z"/>
    <path class="cls-4" d="M357.35,282.43c4.67,1.49,8.74,4.33,12.91,6.84-2.1,4.07-6.96,2.92-10.77,3.62,2.06,1.08,4.27,1.98,6.03,3.55-.34,.99-.74,1.96-1.2,2.91-4.49-1.48-8.34-4.37-12.47-6.57,.41-.74,1.22-2.22,1.63-2.95,2.96-.44,5.95-.67,8.94-.86-2.04-1.1-4.07-2.22-6.1-3.34,.26-.8,.77-2.4,1.03-3.2Z"/>
  </g>
  <g>
    <path class="cls-12" d="M1933.18,199.77c-.7-4.06-.33-8.6,3-11.46-1.79,3.6-2.46,7.52-3,11.46Z"/>
    <path class="cls-12" d="M36.46,221.48c2.15-2.98,6.35-3.22,9.61-2.33,3.46,1.45,4.44,5.89,3.55,9.22-.8,1.36-2.2,2.17-3.4,3.11-.38-2.1-.59-4.28,.44-6.25-.23-.6-.67-1.8-.9-2.4-2.24-.02-4.49,.1-6.72,.34-.32,2.15-.51,4.52,1.58,5.89,.09-.84,.26-2.53,.35-3.38,.96,.03,1.93,.07,2.89,.1,.08,1.87,.22,3.75,.18,5.63-1.81,.7-3.82,.61-5.73,.63-2.67-2.59-4.09-7.29-1.85-10.56Z"/>
  </g>
  <path class="cls-5" d="M856.8,211.87c2.02,.71-.79,3.32-1.99,2.15-.69-1.15,.92-2.29,1.99-2.15Z"/>
  <g>
    <path class="cls-11" d="M372.83,245.98c5.04-2.68,13.38,2.36,10.6,8.42-1.33,5.34-8.54,5.67-12.04,2.32-3.44-2.82-2.2-8.73,1.44-10.74Zm.09,4.29c.05,1.14,.12,2.29,.19,3.44,2.18,.42,5.93,2.69,7.08-.25,1.21-3.16-2.61-3.68-4.67-4.49-.65,.32-1.95,.97-2.6,1.3Z"/>
    <path class="cls-11" d="M41.76,257.44c3.95-1.09,7.76-2.64,11.74-3.58,2.11-.92,2.15,1.91,2.82,3.11-3.26,1.18-6.59,2.19-9.88,3.28,.51,2.07,1.12,4.12,1.45,6.23-.72,.16-2.15,.49-2.87,.65-1.5-3.07-2.27-6.43-3.26-9.69Z"/>
  </g>
  <path class="cls-9" d="M377.68,260.84c1.14,.6,3.37,.73,2.64,2.61-.52,2.82-1.74,5.44-2.68,8.14-4.35-1.34-8.63-2.93-12.93-4.43,.27-1.22,.55-2.44,.84-3.66,3.48,.8,6.8,2.11,10.23,3.09,.64-1.92,1.27-3.83,1.9-5.75Z"/>
  <g>
    <path class="cls-19" d="M45.7,269.38c4.36-1.65,8.68-3.41,13.12-4.86,.27,.83,.82,2.5,1.09,3.33-3.89,2.47-8.56,3.39-12.74,5.32-.49-1.27-.99-2.53-1.47-3.79Z"/>
    <path class="cls-19" d="M118.16,344.96c4.57-1.49,10.4,1.89,9,7.18l-3.4-1.48-.08-2.6c-1.06-.11-2.12-.19-3.18-.26,1.55,2.14,3.54,4.05,4.4,6.61,.2,2.17-1.98,3.44-3.21,4.9-4.54-.17-9.25-3.53-7.91-8.58,.76,.23,2.28,.7,3.04,.94,.61,1.92,1.26,3.9,3.06,5.07,1.56-3.37-2.12-5.32-2.84-8.23,.33-1.2,.71-2.39,1.12-3.55Z"/>
  </g>
  <path class="cls-8" d="M359.93,277.56c1.04-2.43,1.81-5.52,4.54-6.6,4.13-1.09,9.32,1.1,10.43,5.46,.54,3-1.68,5.4-3.28,7.65-4.97,1.19-10.56-1.22-11.69-6.51Zm3.93,.04c1.32,2.8,4.66,2.81,7.3,2.6-.21-1.45,.6-3.49-1.08-4.29-1.92-1.78-6.99-2.07-6.22,1.69Z"/>
  <path class="cls-16" d="M363.86,277.6c-.77-3.76,4.3-3.47,6.22-1.69,1.68,.8,.87,2.84,1.08,4.29-2.64,.21-5.98,.2-7.3-2.6Z"/>
  <g>
    <path class="cls-1" d="M60.21,295.25c2.52-3.04,6.32-4.57,9.55-6.69,.63,1.19,1.25,2.38,1.86,3.58-2.39,1.45-4.87,2.77-7.13,4.42-1.25,.83-.52,2.6-.76,3.84,4.06,.03,7.04-3.01,10.48-4.69,.49,.8,1.49,2.39,1.98,3.19-3.98,2.22-8,6.78-12.98,4.94-2.49-1.95-4.38-5.46-3-8.59Z"/>
    <path class="cls-1" d="M291.65,350.34c1.23-.28,2.46-.56,3.7-.82,1.89,3.88,4.3,7.5,5.93,11.5-.88,.74-1.77,1.44-2.68,2.13-2.65-1.46-5.28-2.93-7.91-4.39,1.11,2.19,2.24,4.38,3.35,6.59-.77,.43-2.31,1.28-3.08,1.71-2.42-4.02-4.69-8.13-6.66-12.39,1.06-.55,2.13-1.09,3.19-1.64,2.52,1.46,5.06,2.89,7.6,4.31-1.19-2.31-2.36-4.64-3.44-7Z"/>
    <path class="cls-1" d="M135.05,352.56c3.73,1.55,7.43,3.19,10.97,5.13,1.22,3.57-3.06,2.12-5.03,2.27-1.59,2.77-2.76,5.75-4.19,8.6-1.15-.74-3.88-.9-2.93-2.88,1.01-2.8,2.5-5.39,3.61-8.14-2.61-.64-3.15-2.59-2.43-4.98Z"/>
  </g>
  <g>
    <path class="cls-25" d="M348.66,298.09c.62-1.15,1.25-2.3,1.89-3.44,4.01,2.42,7.83,5.13,11.7,7.77-.7,1.05-1.4,2.12-2.1,3.18-1.7-.99-3.38-2.01-5.06-3.01-.57,1.23-1.18,2.45-1.58,3.75,1.25,1.07,2.64,1.96,3.99,2.92-.88,.92-1.1,3.38-2.77,2.76-3.89-2.18-7.4-4.99-11.09-7.49,.89-.94,1.78-1.89,2.72-2.78,1.31,.71,2.53,1.56,3.79,2.37,.77-1.2,1.53-2.4,2.27-3.61-1.27-.8-2.52-1.61-3.76-2.42Z"/>
    <path class="cls-25" d="M99.68,327.34c3.01,1.63,5.3,4.28,7.96,6.39-.61,.84-1.23,1.68-1.84,2.52-1.74-1.53-3.48-3.04-5.25-4.53l-.91,1.82c1.23,1.6,5.52,3.65,2.84,5.68-2.65-.25-4.48-5.37-6.98-1.86,1.7,1.54,3.44,3.05,5.19,4.54-.67,.87-1.35,1.73-2.03,2.6-2.62-2.42-5.28-4.8-8.01-7.09,2.91-3.44,5.7-7.01,9.03-10.07Z"/>
    <path class="cls-25" d="M130.62,349.97c1.2,.53,2.41,1.06,3.62,1.59-2.09,4.22-4.48,8.28-6.77,12.4-1.15-.93-3.74-1.35-2.6-3.33,1.63-3.7,3.94-7.05,5.75-10.66Z"/>
  </g>
  <path class="cls-2" d="M85.33,313.21c1.52-1.4,2.66,1.06,3.21,2.18-3.02,3.38-6.87,5.89-10.17,8.99-.92-.99-1.83-1.98-2.74-2.96,3.26-2.7,6.35-5.61,9.7-8.21Z"/>
  <path class="cls-14" d="M89.49,316.43c.94,.96,1.92,1.9,2.74,2.97-1.36,3.04-3.23,5.81-4.79,8.75,2.98-1.5,5.83-3.31,8.97-4.47,.97,.86,1.89,1.77,2.77,2.73-4.5,2.01-8.88,4.31-13.49,6.09-.95-.99-1.89-1.99-2.84-2.98,2.23-4.36,4.43-8.73,6.64-13.09Z"/>
  <path class="cls-23" d="M325.14,326.11c1.13-1.04,2.28,.89,3.31,1.22-.93,1.07-1.91,2.1-2.76,3.25,2.06,2.84,4.59,5.3,6.81,8.02-1,.62-2.01,1.22-3.04,1.8-2.74-1.65-4.27-4.74-6.83-6.67-1.88,1.23-4.53,2.43-5.31-.65,2.7-2.22,5.12-4.75,7.82-6.97Z"/>
  <path class="cls-17" d="M220.76,371.19c3.59-.22,7.18-.47,10.78-.48,.47,4.18-3.98,2.81-6.63,3.28,.03,.51,.08,1.53,.11,2.03,2.17-.1,4.33-.19,6.51-.21,.42,3.98-3.78,2.76-6.3,3.24,0,.56,.02,1.68,.03,2.24,2.32-.02,4.63-.11,6.95-.2,.04,.76,.13,2.28,.17,3.04-3.47,.51-6.98,.78-10.48,.98-.72-4.61-.96-9.27-1.14-13.92Z"/>
  <path class="cls-7" d="M213.17,381.7c2.24-.09,4.48-.24,6.72-.39-.22,1.5-.4,3.02-.69,4.52-3.37,.01-6.75,0-10.07-.58,2.99-.33,6.26,.3,9.04-1.03,.22-.33,.67-1,.89-1.33-1.94-.55-3.91-.9-5.89-1.19Z"/>
</svg>